<svg width="33" height="33" viewBox="0 0 33 33" fill="none" xmlns="http://www.w3.org/2000/svg">
<mask id="mask0_109190_4145" style="mask-type:alpha" maskUnits="userSpaceOnUse" x="0" y="0" width="33" height="33">
<rect x="0.5" y="0.5" width="32" height="32" fill="#D9D9D9"/>
</mask>
<g mask="url(#mask0_109190_4145)">
<path d="M25.8291 19.1667C25.5132 19.1667 25.2497 19.0602 25.0386 18.8473C24.8275 18.6343 24.7219 18.3704 24.7219 18.0556V14.9445H21.6108C21.296 14.9445 21.0321 14.8376 20.8191 14.6239C20.6062 14.4102 20.4997 14.1454 20.4997 13.8295C20.4997 13.5136 20.6062 13.2501 20.8191 13.0389C21.0321 12.8278 21.296 12.7223 21.6108 12.7223H24.7219V9.61115C24.7219 9.29635 24.8288 9.03246 25.0425 8.81948C25.2562 8.60653 25.521 8.50005 25.8369 8.50005C26.1528 8.50005 26.4163 8.60653 26.6274 8.81948C26.8386 9.03246 26.9441 9.29635 26.9441 9.61115V12.7223H30.0552C30.37 12.7223 30.6339 12.8291 30.8469 13.0428C31.0599 13.2566 31.1663 13.5214 31.1663 13.8373C31.1663 14.1532 31.0599 14.4167 30.8469 14.6278C30.6339 14.8389 30.37 14.9445 30.0552 14.9445H26.9441V18.0556C26.9441 18.3704 26.8373 18.6343 26.6235 18.8473C26.4098 19.0602 26.145 19.1667 25.8291 19.1667ZM12.4997 16.4778C11.033 16.4778 9.81449 15.9926 8.84411 15.0223C7.87375 14.0519 7.38858 12.8334 7.38858 11.3667C7.38858 9.90005 7.87375 8.68154 8.84411 7.71118C9.81449 6.7408 11.033 6.25562 12.4997 6.25562C13.9663 6.25562 15.1849 6.7408 16.1552 7.71118C17.1256 8.68154 17.6108 9.90005 17.6108 11.3667C17.6108 12.8334 17.1256 14.0519 16.1552 15.0223C15.1849 15.9926 13.9663 16.4778 12.4997 16.4778ZM2.94411 27.1667C2.62931 27.1667 2.36542 27.0602 2.15244 26.8473C1.93949 26.6343 1.83301 26.3704 1.83301 26.0556V23.8334C1.83301 23.063 2.03115 22.3612 2.42744 21.7279C2.82375 21.0945 3.36635 20.6186 4.05524 20.3C5.62562 19.5815 7.07998 19.0649 8.41831 18.75C9.75666 18.4352 11.1159 18.2779 12.4961 18.2779C13.8763 18.2779 15.2367 18.4352 16.5774 18.75C17.9182 19.0649 19.3663 19.5815 20.9219 20.3C21.6108 20.6334 22.1571 21.113 22.5608 21.7389C22.9645 22.3649 23.1663 23.063 23.1663 23.8334V26.0556C23.1663 26.3704 23.0599 26.6343 22.8469 26.8473C22.6339 27.0602 22.37 27.1667 22.0552 27.1667H2.94411ZM4.05521 24.9445H20.9441V23.8334C20.9441 23.5149 20.8645 23.2149 20.7052 22.9334C20.546 22.6519 20.3071 22.4408 19.9886 22.3C18.5515 21.5963 17.2626 21.1204 16.1219 20.8723C14.9812 20.6241 13.7737 20.5 12.4997 20.5C11.2256 20.5 10.0182 20.6278 8.87744 20.8834C7.73671 21.1389 6.44042 21.6112 4.98857 22.3C4.69966 22.4408 4.47187 22.6519 4.30521 22.9334C4.13854 23.2149 4.05521 23.5149 4.05521 23.8334V24.9445ZM12.4997 14.2556C13.3219 14.2556 14.0089 13.9797 14.5608 13.4278C15.1126 12.876 15.3886 12.1889 15.3886 11.3667C15.3886 10.5445 15.1126 9.85746 14.5608 9.30562C14.0089 8.75375 13.3219 8.47782 12.4997 8.47782C11.6775 8.47782 10.9904 8.75375 10.4386 9.30562C9.88671 9.85746 9.61077 10.5445 9.61077 11.3667C9.61077 12.1889 9.88671 12.876 10.4386 13.4278C10.9904 13.9797 11.6775 14.2556 12.4997 14.2556Z" fill="white"/>
</g>
</svg>
