<svg width="30" height="31" viewBox="0 0 30 31" fill="none" xmlns="http://www.w3.org/2000/svg">
<mask id="mask0_108712_1282" style="mask-type:alpha" maskUnits="userSpaceOnUse" x="0" y="0" width="30" height="31">
<rect y="0.98291" width="30" height="30" fill="#D9D9D9"/>
</mask>
<g mask="url(#mask0_108712_1282)">
<path d="M4.62652 28.1853C3.95579 28.1853 3.38161 27.9465 2.90396 27.4688C2.42632 26.9912 2.1875 26.417 2.1875 25.7462V8.67308C2.1875 8.00235 2.42632 7.42816 2.90396 6.95052C3.38161 6.47287 3.95579 6.23405 4.62652 6.23405H15.5107L13.0716 8.67308H4.62652V25.7462H21.6997V17.2706L24.1387 14.8316V25.7462C24.1387 26.417 23.8999 26.9912 23.4223 27.4688C22.9446 27.9465 22.3704 28.1853 21.6997 28.1853H4.62652ZM18.2546 6.93527L19.9924 8.64259L11.9436 16.6914V18.4292H13.6509L21.7302 10.3499L23.468 12.0572L15.3887 20.1365C15.1651 20.3601 14.906 20.5379 14.6113 20.67C14.3166 20.8021 14.0066 20.8682 13.6814 20.8682H10.7241C10.3786 20.8682 10.0889 20.7513 9.85518 20.5176C9.62144 20.2839 9.50457 19.9942 9.50457 19.6487V16.6914C9.50457 16.3662 9.56555 16.0562 9.6875 15.7615C9.80945 15.4668 9.98222 15.2076 10.2058 14.9841L18.2546 6.93527ZM23.468 12.0572L18.2546 6.93527L21.3034 3.88649C21.7912 3.39869 22.3755 3.15479 23.0564 3.15479C23.7373 3.15479 24.3115 3.39869 24.779 3.88649L26.4863 5.6243C26.9538 6.09178 27.1875 6.66088 27.1875 7.33161C27.1875 8.00235 26.9538 8.57145 26.4863 9.03893L23.468 12.0572Z" fill="#CDCDCD"/>
</g>
</svg>
