<svg width="30" height="31" viewBox="0 0 30 31" fill="none" xmlns="http://www.w3.org/2000/svg">
<mask id="mask0_69323_5265" style="mask-type:alpha" maskUnits="userSpaceOnUse" x="0" y="0" width="31" height="31">
<rect x="0.00292969" y="0.96582" width="30" height="30" fill="#D9D9D9"/>
</mask>
<g mask="url(#mask0_69323_5265)">
<path d="M15.0029 23.4658C13.8363 23.4658 12.7217 23.6481 11.6592 24.0127C10.5967 24.3773 9.62793 24.9242 8.75293 25.6533V25.9658H21.2529V25.6533C20.3779 24.9242 19.4092 24.3773 18.3467 24.0127C17.2842 23.6481 16.1696 23.4658 15.0029 23.4658ZM6.25293 24.5283C7.37793 23.4242 8.68522 22.5544 10.1748 21.9189C11.6644 21.2835 13.2738 20.9658 15.0029 20.9658C16.7321 20.9658 18.3415 21.2835 19.8311 21.9189C21.3206 22.5544 22.6279 23.4242 23.7529 24.5283V8.46582H6.25293V24.5283ZM15.0029 18.4658C13.7946 18.4658 12.7633 18.0387 11.9092 17.1846C11.055 16.3304 10.6279 15.2992 10.6279 14.0908C10.6279 12.8825 11.055 11.8512 11.9092 10.9971C12.7633 10.1429 13.7946 9.71582 15.0029 9.71582C16.2113 9.71582 17.2425 10.1429 18.0967 10.9971C18.9508 11.8512 19.3779 12.8825 19.3779 14.0908C19.3779 15.2992 18.9508 16.3304 18.0967 17.1846C17.2425 18.0387 16.2113 18.4658 15.0029 18.4658ZM15.0029 15.9658C15.5238 15.9658 15.9665 15.7835 16.3311 15.4189C16.6956 15.0544 16.8779 14.6117 16.8779 14.0908C16.8779 13.57 16.6956 13.1273 16.3311 12.7627C15.9665 12.3981 15.5238 12.2158 15.0029 12.2158C14.4821 12.2158 14.0394 12.3981 13.6748 12.7627C13.3102 13.1273 13.1279 13.57 13.1279 14.0908C13.1279 14.6117 13.3102 15.0544 13.6748 15.4189C14.0394 15.7835 14.4821 15.9658 15.0029 15.9658ZM6.25293 28.4658C5.56543 28.4658 4.97689 28.221 4.4873 27.7314C3.99772 27.2419 3.75293 26.6533 3.75293 25.9658V8.46582C3.75293 7.77832 3.99772 7.18978 4.4873 6.7002C4.97689 6.21061 5.56543 5.96582 6.25293 5.96582H7.50293V3.46582H10.0029V5.96582H20.0029V3.46582H22.5029V5.96582H23.7529C24.4404 5.96582 25.029 6.21061 25.5186 6.7002C26.0081 7.18978 26.2529 7.77832 26.2529 8.46582V25.9658C26.2529 26.6533 26.0081 27.2419 25.5186 27.7314C25.029 28.221 24.4404 28.4658 23.7529 28.4658H6.25293Z" fill="white"/>
</g>
</svg>
