<svg width="262" height="58" viewBox="0 0 262 58" fill="none" xmlns="http://www.w3.org/2000/svg">
<g filter="url(#filter0_d_112144_5332)">
<rect x="5" y="5" width="252" height="48" rx="10" fill="#E7E7E7"/>
<rect x="5" y="5" width="252" height="48" rx="10" stroke="#A8A8A8" stroke-dasharray="2 4"/>
<path d="M85.9922 35.5H84.4609L78.2344 25.9062H78.1719C78.1875 26.1615 78.2057 26.4531 78.2266 26.7812C78.2474 27.1042 78.263 27.4505 78.2734 27.8203C78.2891 28.1849 78.2969 28.5573 78.2969 28.9375V35.5H77.0625V24.0781H78.5859L84.7891 33.6406H84.8438C84.8333 33.4583 84.8203 33.2005 84.8047 32.8672C84.7891 32.5286 84.7734 32.1667 84.7578 31.7812C84.7474 31.3906 84.7422 31.0286 84.7422 30.6953V24.0781H85.9922V35.5ZM96.2969 31.2031C96.2969 31.9062 96.2057 32.5339 96.0234 33.0859C95.8411 33.638 95.5781 34.1042 95.2344 34.4844C94.8906 34.8646 94.474 35.1562 93.9844 35.3594C93.5 35.5573 92.9505 35.6562 92.3359 35.6562C91.763 35.6562 91.237 35.5573 90.7578 35.3594C90.2839 35.1562 89.8724 34.8646 89.5234 34.4844C89.1797 34.1042 88.9115 33.638 88.7188 33.0859C88.5312 32.5339 88.4375 31.9062 88.4375 31.2031C88.4375 30.2656 88.5964 29.4688 88.9141 28.8125C89.2318 28.151 89.6849 27.6484 90.2734 27.3047C90.8672 26.9557 91.5729 26.7812 92.3906 26.7812C93.1719 26.7812 93.8542 26.9557 94.4375 27.3047C95.026 27.6536 95.4818 28.1589 95.8047 28.8203C96.1328 29.4766 96.2969 30.2708 96.2969 31.2031ZM89.7812 31.2031C89.7812 31.8906 89.8724 32.487 90.0547 32.9922C90.237 33.4974 90.5182 33.888 90.8984 34.1641C91.2786 34.4401 91.7682 34.5781 92.3672 34.5781C92.9609 34.5781 93.4479 34.4401 93.8281 34.1641C94.2135 33.888 94.4974 33.4974 94.6797 32.9922C94.862 32.487 94.9531 31.8906 94.9531 31.2031C94.9531 30.5208 94.862 29.9323 94.6797 29.4375C94.4974 28.9375 94.2161 28.5521 93.8359 28.2812C93.4557 28.0104 92.9635 27.875 92.3594 27.875C91.4688 27.875 90.8151 28.1693 90.3984 28.7578C89.987 29.3464 89.7812 30.1615 89.7812 31.2031ZM105.461 34.5938C105.674 34.5938 105.893 34.5755 106.117 34.5391C106.341 34.5026 106.523 34.4583 106.664 34.4062V35.4141C106.513 35.4818 106.302 35.5391 106.031 35.5859C105.766 35.6328 105.505 35.6562 105.25 35.6562C104.797 35.6562 104.385 35.5781 104.016 35.4219C103.646 35.2604 103.349 34.9896 103.125 34.6094C102.906 34.2292 102.797 33.7031 102.797 33.0312V27.9531H101.578V27.3203L102.805 26.8125L103.32 24.9531H104.102V26.9375H106.609V27.9531H104.102V32.9922C104.102 33.5286 104.224 33.9297 104.469 34.1953C104.719 34.4609 105.049 34.5938 105.461 34.5938ZM111.602 26.7969C112.622 26.7969 113.38 27.026 113.875 27.4844C114.37 27.9427 114.617 28.6745 114.617 29.6797V35.5H113.672L113.422 34.2344H113.359C113.12 34.5469 112.87 34.8099 112.609 35.0234C112.349 35.2318 112.047 35.3906 111.703 35.5C111.365 35.6042 110.948 35.6562 110.453 35.6562C109.932 35.6562 109.469 35.5651 109.062 35.3828C108.661 35.2005 108.344 34.9245 108.109 34.5547C107.88 34.1849 107.766 33.7161 107.766 33.1484C107.766 32.2943 108.104 31.638 108.781 31.1797C109.458 30.7214 110.49 30.4714 111.875 30.4297L113.352 30.3672V29.8438C113.352 29.1042 113.193 28.5859 112.875 28.2891C112.557 27.9922 112.109 27.8438 111.531 27.8438C111.083 27.8438 110.656 27.9089 110.25 28.0391C109.844 28.1693 109.458 28.3229 109.094 28.5L108.695 27.5156C109.081 27.3177 109.523 27.1484 110.023 27.0078C110.523 26.8672 111.049 26.7969 111.602 26.7969ZM113.336 31.2812L112.031 31.3359C110.964 31.3776 110.211 31.5521 109.773 31.8594C109.336 32.1667 109.117 32.6016 109.117 33.1641C109.117 33.6536 109.266 34.0156 109.562 34.25C109.859 34.4844 110.253 34.6016 110.742 34.6016C111.503 34.6016 112.125 34.3906 112.609 33.9688C113.094 33.5469 113.336 32.9141 113.336 32.0703V31.2812ZM122.828 33.1562C122.828 33.7031 122.69 34.1641 122.414 34.5391C122.143 34.9089 121.753 35.1875 121.242 35.375C120.737 35.5625 120.133 35.6562 119.43 35.6562C118.831 35.6562 118.312 35.6094 117.875 35.5156C117.438 35.4219 117.055 35.2891 116.727 35.1172V33.9219C117.076 34.0938 117.492 34.25 117.977 34.3906C118.461 34.5312 118.956 34.6016 119.461 34.6016C120.201 34.6016 120.737 34.4818 121.07 34.2422C121.404 34.0026 121.57 33.6771 121.57 33.2656C121.57 33.0312 121.503 32.8255 121.367 32.6484C121.237 32.4661 121.016 32.2917 120.703 32.125C120.391 31.9531 119.958 31.7656 119.406 31.5625C118.859 31.3542 118.385 31.1484 117.984 30.9453C117.589 30.737 117.281 30.4844 117.062 30.1875C116.849 29.8906 116.742 29.5052 116.742 29.0312C116.742 28.3073 117.034 27.7526 117.617 27.3672C118.206 26.9766 118.977 26.7812 119.93 26.7812C120.445 26.7812 120.927 26.8333 121.375 26.9375C121.828 27.0365 122.25 27.1719 122.641 27.3438L122.203 28.3828C121.849 28.2318 121.471 28.1042 121.07 28C120.669 27.8958 120.26 27.8438 119.844 27.8438C119.245 27.8438 118.784 27.9427 118.461 28.1406C118.143 28.3385 117.984 28.6094 117.984 28.9531C117.984 29.2188 118.057 29.4375 118.203 29.6094C118.354 29.7812 118.594 29.9427 118.922 30.0938C119.25 30.2448 119.682 30.4219 120.219 30.625C120.755 30.8229 121.219 31.0286 121.609 31.2422C122 31.4505 122.299 31.7057 122.508 32.0078C122.721 32.3047 122.828 32.6875 122.828 33.1562ZM126.203 23.3438V29.6562C126.203 29.8646 126.195 30.1198 126.18 30.4219C126.164 30.7188 126.151 30.9818 126.141 31.2109H126.195C126.305 31.0755 126.464 30.875 126.672 30.6094C126.885 30.3438 127.065 30.1302 127.211 29.9688L130.055 26.9375H131.578L128.133 30.5938L131.828 35.5H130.266L127.242 31.4453L126.203 32.3984V35.5H124.914V23.3438H126.203ZM138.859 33.1562C138.859 33.7031 138.721 34.1641 138.445 34.5391C138.174 34.9089 137.784 35.1875 137.273 35.375C136.768 35.5625 136.164 35.6562 135.461 35.6562C134.862 35.6562 134.344 35.6094 133.906 35.5156C133.469 35.4219 133.086 35.2891 132.758 35.1172V33.9219C133.107 34.0938 133.523 34.25 134.008 34.3906C134.492 34.5312 134.987 34.6016 135.492 34.6016C136.232 34.6016 136.768 34.4818 137.102 34.2422C137.435 34.0026 137.602 33.6771 137.602 33.2656C137.602 33.0312 137.534 32.8255 137.398 32.6484C137.268 32.4661 137.047 32.2917 136.734 32.125C136.422 31.9531 135.99 31.7656 135.438 31.5625C134.891 31.3542 134.417 31.1484 134.016 30.9453C133.62 30.737 133.312 30.4844 133.094 30.1875C132.88 29.8906 132.773 29.5052 132.773 29.0312C132.773 28.3073 133.065 27.7526 133.648 27.3672C134.237 26.9766 135.008 26.7812 135.961 26.7812C136.477 26.7812 136.958 26.8333 137.406 26.9375C137.859 27.0365 138.281 27.1719 138.672 27.3438L138.234 28.3828C137.88 28.2318 137.503 28.1042 137.102 28C136.701 27.8958 136.292 27.8438 135.875 27.8438C135.276 27.8438 134.815 27.9427 134.492 28.1406C134.174 28.3385 134.016 28.6094 134.016 28.9531C134.016 29.2188 134.089 29.4375 134.234 29.6094C134.385 29.7812 134.625 29.9427 134.953 30.0938C135.281 30.2448 135.714 30.4219 136.25 30.625C136.786 30.8229 137.25 31.0286 137.641 31.2422C138.031 31.4505 138.331 31.7057 138.539 32.0078C138.753 32.3047 138.859 32.6875 138.859 33.1562ZM148.805 35.5H147.469V25.25H143.875V24.0781H152.383V25.25H148.805V35.5ZM161.297 31.2031C161.297 31.9062 161.206 32.5339 161.023 33.0859C160.841 33.638 160.578 34.1042 160.234 34.4844C159.891 34.8646 159.474 35.1562 158.984 35.3594C158.5 35.5573 157.951 35.6562 157.336 35.6562C156.763 35.6562 156.237 35.5573 155.758 35.3594C155.284 35.1562 154.872 34.8646 154.523 34.4844C154.18 34.1042 153.911 33.638 153.719 33.0859C153.531 32.5339 153.438 31.9062 153.438 31.2031C153.438 30.2656 153.596 29.4688 153.914 28.8125C154.232 28.151 154.685 27.6484 155.273 27.3047C155.867 26.9557 156.573 26.7812 157.391 26.7812C158.172 26.7812 158.854 26.9557 159.438 27.3047C160.026 27.6536 160.482 28.1589 160.805 28.8203C161.133 29.4766 161.297 30.2708 161.297 31.2031ZM154.781 31.2031C154.781 31.8906 154.872 32.487 155.055 32.9922C155.237 33.4974 155.518 33.888 155.898 34.1641C156.279 34.4401 156.768 34.5781 157.367 34.5781C157.961 34.5781 158.448 34.4401 158.828 34.1641C159.214 33.888 159.497 33.4974 159.68 32.9922C159.862 32.487 159.953 31.8906 159.953 31.2031C159.953 30.5208 159.862 29.9323 159.68 29.4375C159.497 28.9375 159.216 28.5521 158.836 28.2812C158.456 28.0104 157.964 27.875 157.359 27.875C156.469 27.875 155.815 28.1693 155.398 28.7578C154.987 29.3464 154.781 30.1615 154.781 31.2031ZM170.742 35.6562C169.659 35.6562 168.799 35.2865 168.164 34.5469C167.534 33.8073 167.219 32.7083 167.219 31.25C167.219 29.776 167.542 28.6641 168.188 27.9141C168.833 27.1589 169.693 26.7812 170.766 26.7812C171.219 26.7812 171.615 26.8411 171.953 26.9609C172.292 27.0807 172.583 27.2422 172.828 27.4453C173.073 27.6432 173.279 27.8698 173.445 28.125H173.539C173.518 27.9635 173.497 27.7422 173.477 27.4609C173.456 27.1797 173.445 26.9505 173.445 26.7734V23.3438H174.742V35.5H173.695L173.5 34.2812H173.445C173.284 34.5365 173.078 34.7682 172.828 34.9766C172.583 35.1849 172.289 35.3516 171.945 35.4766C171.607 35.5964 171.206 35.6562 170.742 35.6562ZM170.945 34.5781C171.862 34.5781 172.51 34.3177 172.891 33.7969C173.271 33.276 173.461 32.5026 173.461 31.4766V31.2422C173.461 30.1536 173.279 29.3177 172.914 28.7344C172.555 28.151 171.898 27.8594 170.945 27.8594C170.148 27.8594 169.552 28.1667 169.156 28.7812C168.76 29.3906 168.562 30.224 168.562 31.2812C168.562 32.3333 168.758 33.1458 169.148 33.7188C169.544 34.2917 170.143 34.5781 170.945 34.5781ZM184.875 31.2031C184.875 31.9062 184.784 32.5339 184.602 33.0859C184.419 33.638 184.156 34.1042 183.812 34.4844C183.469 34.8646 183.052 35.1562 182.562 35.3594C182.078 35.5573 181.529 35.6562 180.914 35.6562C180.341 35.6562 179.815 35.5573 179.336 35.3594C178.862 35.1562 178.451 34.8646 178.102 34.4844C177.758 34.1042 177.49 33.638 177.297 33.0859C177.109 32.5339 177.016 31.9062 177.016 31.2031C177.016 30.2656 177.174 29.4688 177.492 28.8125C177.81 28.151 178.263 27.6484 178.852 27.3047C179.445 26.9557 180.151 26.7812 180.969 26.7812C181.75 26.7812 182.432 26.9557 183.016 27.3047C183.604 27.6536 184.06 28.1589 184.383 28.8203C184.711 29.4766 184.875 30.2708 184.875 31.2031ZM178.359 31.2031C178.359 31.8906 178.451 32.487 178.633 32.9922C178.815 33.4974 179.096 33.888 179.477 34.1641C179.857 34.4401 180.346 34.5781 180.945 34.5781C181.539 34.5781 182.026 34.4401 182.406 34.1641C182.792 33.888 183.076 33.4974 183.258 32.9922C183.44 32.487 183.531 31.8906 183.531 31.2031C183.531 30.5208 183.44 29.9323 183.258 29.4375C183.076 28.9375 182.794 28.5521 182.414 28.2812C182.034 28.0104 181.542 27.875 180.938 27.875C180.047 27.875 179.393 28.1693 178.977 28.7578C178.565 29.3464 178.359 30.1615 178.359 31.2031Z" fill="#A8A8A8"/>
</g>
<defs>
<filter id="filter0_d_112144_5332" x="0.5" y="0.5" width="261" height="57" filterUnits="userSpaceOnUse" color-interpolation-filters="sRGB">
<feFlood flood-opacity="0" result="BackgroundImageFix"/>
<feColorMatrix in="SourceAlpha" type="matrix" values="0 0 0 0 0 0 0 0 0 0 0 0 0 0 0 0 0 0 127 0" result="hardAlpha"/>
<feOffset/>
<feGaussianBlur stdDeviation="2"/>
<feColorMatrix type="matrix" values="0 0 0 0 0 0 0 0 0 0 0 0 0 0 0 0 0 0 0.16 0"/>
<feBlend mode="normal" in2="BackgroundImageFix" result="effect1_dropShadow_112144_5332"/>
<feBlend mode="normal" in="SourceGraphic" in2="effect1_dropShadow_112144_5332" result="shape"/>
</filter>
</defs>
</svg>
