<svg width="30" height="31" viewBox="0 0 30 31" fill="none" xmlns="http://www.w3.org/2000/svg">
<path d="M25.2273 3.48303H4.77273H4.5C3.39543 3.48303 2.5 4.37876 2.5 5.48333C2.5 5.66313 2.5 5.7905 2.5 5.823V26.2775V26.483C2.5 27.5876 3.39572 28.483 4.50029 28.483C4.64377 28.483 4.74401 28.483 4.77272 28.483H25.2273C25.256 28.483 25.3562 28.483 25.4997 28.483C26.6043 28.483 27.5 27.5871 27.5 26.4825C27.5 26.3757 27.5 26.3019 27.5 26.2775V5.82297C27.5 5.79047 27.5 5.66311 27.5 5.48333C27.5 4.37876 26.6043 3.48303 25.4997 3.48303C25.3562 3.48303 25.256 3.48303 25.2273 3.48303ZM17.2727 26.2775H4.77273V17.1866H17.2727V26.2775ZM17.2727 14.9139H4.77273V5.823L17.2727 5.82297V14.9139ZM25.2273 26.2775H19.5455V5.823H25.2273V26.2775Z" fill="#CDCDCD"/>
</svg>
