<svg width="56" height="56" viewBox="0 0 56 56" fill="none" xmlns="http://www.w3.org/2000/svg">
<rect width="48" height="48" rx="24" transform="matrix(1 0 0 -1 4 52)" fill="white"/>
<path d="M21.9894 25.0543C21.9353 24.5087 21.703 24.0848 21.2927 23.7826C20.8823 23.4805 20.3254 23.3295 19.622 23.3295C19.144 23.3295 18.7404 23.3971 18.4112 23.5324C18.082 23.6631 17.8295 23.8458 17.6536 24.0803C17.4823 24.3148 17.3966 24.5808 17.3966 24.8784C17.3876 25.1264 17.4394 25.3429 17.5522 25.5278C17.6694 25.7127 17.8295 25.8727 18.0324 26.008C18.2353 26.1388 18.4698 26.2538 18.7359 26.353C19.0019 26.4477 19.286 26.5289 19.5881 26.5965L20.8327 26.8941C21.437 27.0294 21.9916 27.2098 22.4967 27.4352C23.0017 27.6607 23.4392 27.938 23.8089 28.2672C24.1787 28.5964 24.465 28.9842 24.668 29.4306C24.8754 29.8771 24.9814 30.3889 24.9859 30.9661C24.9814 31.8139 24.7649 32.5489 24.3365 33.1712C23.9126 33.789 23.2994 34.2692 22.4967 34.6119C21.6985 34.9501 20.7358 35.1192 19.6084 35.1192C18.4901 35.1192 17.5161 34.9479 16.6864 34.6052C15.8611 34.2624 15.2163 33.7551 14.7518 33.0832C14.2919 32.4068 14.0506 31.5703 14.0281 30.5738H16.8622C16.8938 31.0382 17.0268 31.426 17.2613 31.7372C17.5003 32.0438 17.8182 32.2761 18.215 32.4339C18.6164 32.5872 19.0696 32.6639 19.5746 32.6639C20.0706 32.6639 20.5013 32.5917 20.8666 32.4474C21.2363 32.3031 21.5227 32.1025 21.7256 31.8454C21.9285 31.5884 22.03 31.293 22.03 30.9593C22.03 30.6482 21.9375 30.3866 21.7526 30.1747C21.5723 29.9627 21.3062 29.7824 20.9545 29.6336C20.6073 29.4848 20.1811 29.3495 19.6761 29.2277L18.1677 28.8489C16.9998 28.5648 16.0776 28.1207 15.4012 27.5164C14.7248 26.9122 14.3888 26.0982 14.3933 25.0746C14.3888 24.2358 14.612 23.5031 15.063 22.8763C15.5184 22.2495 16.143 21.7602 16.9366 21.4085C17.7303 21.0567 18.6322 20.8809 19.6423 20.8809C20.6704 20.8809 21.5678 21.0567 22.3344 21.4085C23.1055 21.7602 23.7052 22.2495 24.1336 22.8763C24.562 23.5031 24.7829 24.2291 24.7965 25.0543H21.9894Z" fill="#29ABE2"/>
<path d="M26.9559 21.0703H30.5679L34.3829 30.3776H34.5452L38.3601 21.0703H41.9721V34.9231H39.1312V25.9066H39.0162L35.4313 34.8554H33.4968L29.9118 25.8727H29.7968V34.9231H26.9559V21.0703Z" fill="#29ABE2"/>
<circle cx="28" cy="28" r="26.5" stroke="#2A3647" stroke-width="3"/>
</svg>
