<?xml version="1.0" standalone="no"?>
<!DOCTYPE svg PUBLIC "-//W3C//DTD SVG 20010904//EN"
 "http://www.w3.org/TR/2001/REC-SVG-20010904/DTD/svg10.dtd">
<svg version="1.0" xmlns="http://www.w3.org/2000/svg"
 width="976.000000pt" height="976.000000pt" viewBox="0 0 976.000000 976.000000"
 preserveAspectRatio="xMidYMid meet">
<metadata>
Created by potrace 1.14, written by Peter Selinger 2001-2017
</metadata>
<g transform="translate(0.000000,976.000000) scale(0.100000,-0.100000)"
fill="#000000" stroke="none">
<path d="M4802 8741 l0 -1018 22 2 c11 0 29 -3 39 -7 10 -5 17 -5 17 1 0 7 8
7 24 1 13 -5 26 -7 28 -5 5 5 76 7 115 2 17 -1 29 1 26 6 -3 5 3 6 14 3 11 -3
42 -6 69 -6 27 0 72 0 99 0 28 0 68 0 90 1 22 1 49 1 60 0 11 0 31 0 45 0 31
1 37 1 77 -4 17 -2 29 1 26 6 -3 5 3 7 13 3 19 -5 50 -7 157 -6 33 0 64 -3 69
-7 7 -3 8 -1 4 5 -5 8 2 10 21 7 47 -9 141 -11 136 -2 -5 9 -4 9 33 -2 17 -5
37 -5 43 -1 7 4 30 4 51 0 22 -4 37 -3 34 1 -3 5 8 6 23 4 48 -9 141 -10 136
-2 -2 4 8 5 23 1 16 -4 34 -7 41 -6 25 3 118 2 150 -1 17 -2 30 0 27 4 -2 4
10 6 28 5 l32 -1 0 1015 0 1015 -886 3 -886 2 0 -1019z"/>
<path d="M2129 7348 c-1 -2 -2 -402 -3 -890 l-1 -888 886 0 885 0 0 890 0 890
-883 0 c-486 0 -884 -1 -884 -2z"/>
<path d="M4808 6060 c-1 -3 -2 -702 -2 -1555 -1 -852 -4 -1559 -7 -1570 -4
-11 -10 -42 -13 -70 -14 -96 -69 -291 -106 -370 -56 -122 -119 -244 -146 -282
-34 -47 -128 -157 -159 -186 -72 -67 -236 -160 -320 -182 -16 -5 -37 -10 -45
-12 -8 -3 -24 -6 -35 -8 -11 -2 -20 -4 -20 -5 0 -1 -13 -4 -30 -6 -16 -3 -37
-7 -45 -10 -47 -18 -428 -26 -550 -11 -178 22 -401 68 -427 89 -7 6 -13 8 -13
5 0 -3 -39 10 -87 29 -49 19 -94 34 -100 34 -7 0 -13 5 -13 10 0 6 -5 10 -11
10 -15 0 -163 73 -167 83 -2 4 -8 7 -13 7 -5 0 -40 20 -79 45 -39 25 -73 45
-76 45 -2 0 -10 5 -17 10 -7 6 -59 45 -117 88 -129 95 -187 139 -222 171 l-28
24 -21 -24 c-12 -13 -33 -40 -48 -59 -14 -19 -28 -37 -31 -40 -3 -3 -53 -63
-110 -135 -117 -145 -139 -172 -157 -191 -7 -7 -13 -17 -13 -23 0 -6 -4 -11
-8 -11 -4 0 -26 -24 -47 -53 -22 -28 -42 -54 -46 -57 -3 -3 -46 -54 -94 -115
-49 -60 -136 -168 -194 -240 -58 -71 -109 -134 -114 -140 -4 -5 -16 -20 -26
-33 -11 -13 -34 -41 -53 -64 -18 -23 -61 -75 -95 -117 -61 -76 -62 -76 -41
-95 28 -27 158 -129 263 -208 50 -37 95 -72 101 -77 5 -4 30 -21 55 -37 24
-16 48 -34 52 -41 4 -7 13 -13 18 -13 6 0 36 -17 67 -38 31 -21 91 -58 132
-82 41 -24 86 -50 100 -59 47 -28 250 -129 250 -124 0 3 7 -1 16 -8 9 -7 21
-14 28 -15 6 -1 38 -15 71 -30 33 -15 62 -28 65 -29 3 -1 16 -6 30 -12 14 -6
81 -29 150 -53 69 -23 132 -44 140 -48 8 -3 20 -6 25 -6 6 -1 27 -7 47 -14 21
-8 42 -11 48 -7 5 3 10 2 10 -3 0 -8 46 -21 125 -36 11 -2 43 -9 70 -16 28 -6
64 -14 80 -16 17 -2 37 -6 45 -8 8 -1 38 -6 65 -10 28 -4 61 -10 75 -12 14 -2
48 -6 75 -9 28 -3 66 -7 85 -10 178 -24 696 -25 842 0 12 2 50 7 82 10 33 3
63 8 67 10 3 3 28 7 55 10 88 9 409 94 509 135 17 7 39 16 50 20 134 51 344
159 480 248 63 42 183 128 195 142 3 3 28 23 55 45 51 40 230 216 296 291 64
71 207 262 244 326 6 9 30 50 55 90 66 108 242 464 246 498 0 3 7 21 15 40 26
59 115 337 129 404 5 22 16 73 25 111 9 39 18 86 21 105 2 19 9 60 14 90 13
71 21 133 25 195 2 28 5 50 5 50 12 0 21 3161 10 3202 -5 17 -44 18 -883 18
-482 0 -878 -2 -879 -5z"/>
<path d="M6965 1385 c-292 -67 -446 -447 -329 -807 15 -45 31 -85 34 -88 4 -3
14 -18 23 -35 24 -47 102 -122 158 -151 168 -88 377 -53 507 85 42 45 102 156
117 216 46 187 32 385 -38 537 -86 188 -280 288 -472 243z m204 -194 c50 -36
99 -134 118 -236 7 -39 7 -187 0 -245 -6 -49 -43 -155 -61 -178 -62 -77 -106
-103 -175 -104 -154 -1 -252 166 -245 417 3 120 12 167 49 243 69 142 199 185
314 103z"/>
<path d="M7659 1352 c-1 -34 -1 -1041 0 -1063 1 -14 16 -16 95 -16 61 0 96 4
98 11 2 6 4 254 3 551 l0 540 -98 2 -97 2 -1 -27z"/>
<path d="M8069 1357 c-1 -28 -1 -1058 0 -1073 1 -8 28 -11 84 -9 45 1 84 3 87
4 5 1 4 636 0 636 -1 0 -3 42 -4 93 -1 50 0 92 1 92 3 0 33 -63 33 -72 0 -22
288 -608 305 -620 6 -4 6 -8 1 -8 -5 0 -1 -9 10 -21 10 -12 17 -22 15 -23 -2
0 5 -19 17 -42 l21 -40 102 0 102 1 1 540 c1 297 0 546 -2 553 -3 8 -30 12
-92 12 l-88 0 3 -347 c2 -192 6 -375 9 -408 l6 -60 -25 60 c-14 33 -29 69 -34
80 -5 11 -17 38 -26 60 -31 72 -215 435 -243 479 -3 6 -7 16 -8 23 -1 7 -11
25 -22 40 -11 15 -20 30 -20 33 -3 35 -14 39 -123 39 -106 1 -109 0 -110 -22z"/>
</g>
</svg>
