<svg width="30" height="31" viewBox="0 0 30 31" fill="none" xmlns="http://www.w3.org/2000/svg">
<path d="M22.9529 5.75564L22.9529 26.21C22.9523 26.8125 22.7126 27.3903 22.2865 27.8163C21.8605 28.2424 21.2827 28.4821 20.6802 28.4827L16.1348 28.4827C15.5322 28.4821 14.9545 28.2424 14.5284 27.8163C14.1023 27.3903 13.8627 26.8125 13.8621 26.21L13.8621 5.75564C13.8627 5.15306 14.1023 4.57534 14.5284 4.14926C14.9545 3.72317 15.5322 3.48353 16.1348 3.48293L20.6802 3.48293C21.2827 3.48353 21.8605 3.72317 22.2865 4.14926C22.7126 4.57534 22.9523 5.15306 22.9529 5.75564ZM16.1348 26.21L20.6802 26.21L20.6802 5.75564L16.1348 5.75564L16.1348 26.21ZM16.1348 5.75564L16.1348 26.21C16.1342 26.8125 15.8945 27.3902 15.4684 27.8163C15.0423 28.2424 14.4646 28.482 13.8621 28.4826L9.31664 28.4826C8.71407 28.482 8.13635 28.2424 7.71026 27.8163C7.28418 27.3902 7.04454 26.8125 7.04394 26.2099L7.04394 5.75561C7.04454 5.15304 7.28418 4.57532 7.71026 4.14923C8.13635 3.72315 8.71407 3.48351 9.31664 3.48291L13.862 3.48291C14.4646 3.48351 15.0423 3.72315 15.4684 4.14923C15.8945 4.57532 16.1342 5.15306 16.1348 5.75564ZM9.31664 26.2099L13.8621 26.21L13.8621 5.75564L9.31664 5.75561L9.31664 26.2099ZM9.31664 5.75561L9.31664 26.2099C9.31604 26.8125 9.0764 27.3902 8.65032 27.8163C8.22424 28.2424 7.64651 28.482 7.04394 28.4826L2.49853 28.4826C1.89596 28.482 1.31824 28.2424 0.892154 27.8163C0.46607 27.3902 0.226432 26.8125 0.22583 26.2099L0.225829 5.75561C0.226431 5.15304 0.466069 4.57532 0.892153 4.14923C1.31824 3.72315 1.89596 3.48351 2.49853 3.48291L7.04394 3.48291C7.64651 3.48351 8.22423 3.72315 8.65032 4.14923C9.0764 4.57532 9.31604 5.15304 9.31664 5.75561ZM2.49853 26.2099L7.04394 26.2099L7.04394 5.75561L2.49853 5.75561L2.49853 26.2099Z" fill="#CDCDCD"/>
<path d="M29.771 5.75589L29.771 26.2102C29.7704 26.8128 29.5307 27.3905 29.1046 27.8166C28.6786 28.2427 28.1008 28.4823 27.4983 28.4829L22.9529 28.4829C22.3503 28.4823 21.7726 28.2427 21.3465 27.8166C20.9204 27.3905 20.6808 26.8125 20.6802 26.21L20.6802 5.75564C20.6808 5.15306 20.9204 4.57559 21.3465 4.14951C21.7726 3.72342 22.3503 3.48379 22.9529 3.48318L27.4983 3.48318C28.1008 3.48379 28.6786 3.72342 29.1046 4.14951C29.5307 4.57559 29.7704 5.15331 29.771 5.75589ZM22.9529 26.21L27.4983 26.2102L27.4983 5.75589L22.9529 5.75564L22.9529 26.21Z" fill="#CDCDCD"/>
</svg>
