<svg width="49" height="16" viewBox="0 0 49 16" fill="none" xmlns="http://www.w3.org/2000/svg">
<path d="M12.7144 5H10.9531C10.8489 4.49337 10.6666 4.0483 10.4062 3.66477C10.1505 3.28125 9.83802 2.95928 9.46871 2.69886C9.10412 2.43371 8.69929 2.23485 8.25422 2.10227C7.80914 1.9697 7.34513 1.90341 6.86217 1.90341C5.98149 1.90341 5.18367 2.12595 4.46871 2.57102C3.75848 3.0161 3.19266 3.67188 2.77126 4.53835C2.3546 5.40483 2.14626 6.4678 2.14626 7.72727C2.14626 8.98674 2.3546 10.0497 2.77126 10.9162C3.19266 11.7827 3.75848 12.4384 4.46871 12.8835C5.18367 13.3286 5.98149 13.5511 6.86217 13.5511C7.34513 13.5511 7.80914 13.4848 8.25422 13.3523C8.69929 13.2197 9.10412 13.0232 9.46871 12.7628C9.83802 12.4976 10.1505 12.1733 10.4062 11.7898C10.6666 11.4015 10.8489 10.9564 10.9531 10.4545H12.7144C12.5819 11.1979 12.3404 11.8632 11.99 12.4503C11.6396 13.0374 11.204 13.5369 10.6832 13.9489C10.1624 14.3561 9.57761 14.6662 8.92893 14.8793C8.28499 15.0923 7.59607 15.1989 6.86217 15.1989C5.62164 15.1989 4.51842 14.8958 3.55251 14.2898C2.5866 13.6837 1.82666 12.822 1.27268 11.7045C0.718706 10.5871 0.441717 9.26136 0.441717 7.72727C0.441717 6.19318 0.718706 4.86742 1.27268 3.75C1.82666 2.63258 2.5866 1.77083 3.55251 1.16477C4.51842 0.558712 5.62164 0.255681 6.86217 0.255681C7.59607 0.255681 8.28499 0.362215 8.92893 0.575284C9.57761 0.788352 10.1624 1.10085 10.6832 1.51278C11.204 1.91998 11.6396 2.41714 11.99 3.00426C12.3404 3.58665 12.5819 4.25189 12.7144 5ZM17.0095 0.454545V15H15.3334V0.454545H17.0095ZM24.6534 15.2273C23.6022 15.2273 22.6955 14.9953 21.9332 14.5312C21.1756 14.0625 20.5909 13.4091 20.1789 12.571C19.7717 11.7282 19.5681 10.7481 19.5681 9.63068C19.5681 8.51326 19.7717 7.52841 20.1789 6.67614C20.5909 5.81913 21.1638 5.15152 21.8977 4.6733C22.6363 4.19034 23.4981 3.94886 24.4829 3.94886C25.0511 3.94886 25.6122 4.04356 26.1661 4.23295C26.7201 4.42235 27.2244 4.73011 27.6789 5.15625C28.1335 5.57765 28.4957 6.13636 28.7656 6.83239C29.0355 7.52841 29.1704 8.38542 29.1704 9.40341V10.1136H20.7613V8.66477H27.4659C27.4659 8.04924 27.3428 7.5 27.0965 7.01705C26.8551 6.53409 26.5094 6.15294 26.0596 5.87358C25.6145 5.59422 25.089 5.45455 24.4829 5.45455C23.8153 5.45455 23.2376 5.62026 22.75 5.9517C22.267 6.27841 21.8953 6.70455 21.6349 7.23011C21.3745 7.75568 21.2443 8.31913 21.2443 8.92045V9.88636C21.2443 10.7102 21.3863 11.4086 21.6704 11.9815C21.9592 12.5497 22.3593 12.983 22.8707 13.2812C23.3821 13.5748 23.9763 13.7216 24.6534 13.7216C25.0937 13.7216 25.4914 13.66 25.8465 13.5369C26.2064 13.4091 26.5165 13.2197 26.7769 12.9688C27.0374 12.7131 27.2386 12.3958 27.3806 12.017L29 12.4716C28.8295 13.0208 28.543 13.5038 28.1406 13.9205C27.7381 14.3324 27.241 14.6544 26.6491 14.8864C26.0572 15.1136 25.392 15.2273 24.6534 15.2273ZM34.9304 15.2557C34.2391 15.2557 33.6117 15.1255 33.0483 14.8651C32.4848 14.5999 32.0374 14.2188 31.7059 13.7216C31.3745 13.2197 31.2088 12.6136 31.2088 11.9034C31.2088 11.2784 31.3319 10.7718 31.5781 10.3835C31.8243 9.99053 32.1534 9.68276 32.5653 9.46023C32.9772 9.23769 33.4318 9.07197 33.9289 8.96307C34.4308 8.84943 34.9351 8.75947 35.4417 8.69318C36.1046 8.60795 36.642 8.54403 37.0539 8.50142C37.4706 8.45407 37.7736 8.37595 37.963 8.26705C38.1572 8.15814 38.2542 7.96875 38.2542 7.69886V7.64205C38.2542 6.94129 38.0625 6.39678 37.6789 6.00852C37.3001 5.62027 36.7249 5.42614 35.9531 5.42614C35.1529 5.42614 34.5255 5.60133 34.071 5.9517C33.6164 6.30208 33.2968 6.67614 33.1122 7.07386L31.5213 6.50568C31.8054 5.8428 32.1841 5.3267 32.6576 4.95739C33.1358 4.58333 33.6567 4.32292 34.2201 4.17614C34.7883 4.02462 35.347 3.94886 35.8963 3.94886C36.2466 3.94886 36.6491 3.99148 37.1036 4.0767C37.5629 4.1572 38.0056 4.32528 38.4318 4.58097C38.8626 4.83665 39.2201 5.22254 39.5042 5.73864C39.7883 6.25473 39.9304 6.94602 39.9304 7.8125V15H38.2542V13.5227H38.169C38.0554 13.7595 37.866 14.0128 37.6008 14.2827C37.3357 14.5526 36.9829 14.7822 36.5426 14.9716C36.1022 15.161 35.5648 15.2557 34.9304 15.2557ZM35.186 13.75C35.8489 13.75 36.4076 13.6198 36.8622 13.3594C37.3215 13.099 37.6671 12.7628 37.8991 12.3509C38.1358 11.9389 38.2542 11.5057 38.2542 11.0511V9.51705C38.1832 9.60227 38.0269 9.6804 37.7855 9.75142C37.5487 9.81771 37.2741 9.87689 36.9616 9.92898C36.6538 9.97633 36.3532 10.0189 36.0596 10.0568C35.7708 10.09 35.5364 10.1184 35.3565 10.142C34.9209 10.1989 34.5137 10.2912 34.1349 10.419C33.7608 10.5421 33.4578 10.7292 33.2258 10.9801C32.9985 11.2263 32.8849 11.5625 32.8849 11.9886C32.8849 12.571 33.1003 13.0114 33.5312 13.3097C33.9668 13.6032 34.5184 13.75 35.186 13.75ZM42.9897 15V4.09091H44.609V5.73864H44.7226C44.9215 5.19886 45.2813 4.76089 45.8022 4.42472C46.323 4.08854 46.9101 3.92045 47.5635 3.92045C47.6866 3.92045 47.8405 3.92282 48.0252 3.92756C48.2098 3.93229 48.3495 3.93939 48.4442 3.94886V5.65341C48.3874 5.6392 48.2572 5.6179 48.0536 5.58949C47.8547 5.55634 47.644 5.53977 47.4215 5.53977C46.8912 5.53977 46.4177 5.65104 46.001 5.87358C45.5891 6.09138 45.2624 6.39441 45.0209 6.78267C44.7842 7.16619 44.6658 7.60417 44.6658 8.09659V15H42.9897Z" fill="#2A3647"/>
</svg>
