<svg width="24" height="26" viewBox="0 0 24 26" fill="none" xmlns="http://www.w3.org/2000/svg">
<path d="M11.9984 20.4829C10.8317 20.4829 9.71716 20.6652 8.65466 21.0298C7.59216 21.3944 6.62341 21.9412 5.74841 22.6704V22.9829H18.2484V22.6704C17.3734 21.9412 16.4047 21.3944 15.3422 21.0298C14.2797 20.6652 13.1651 20.4829 11.9984 20.4829ZM3.24841 21.5454C4.37341 20.4412 5.68071 19.5715 7.17029 18.936C8.65987 18.3006 10.2692 17.9829 11.9984 17.9829C13.7276 17.9829 15.337 18.3006 16.8265 18.936C18.3161 19.5715 19.6234 20.4412 20.7484 21.5454V5.48291H3.24841V21.5454ZM11.9984 15.4829C10.7901 15.4829 9.75883 15.0558 8.90466 14.2017C8.0505 13.3475 7.62341 12.3162 7.62341 11.1079C7.62341 9.89958 8.0505 8.86833 8.90466 8.01416C9.75883 7.15999 10.7901 6.73291 11.9984 6.73291C13.2067 6.73291 14.238 7.15999 15.0922 8.01416C15.9463 8.86833 16.3734 9.89958 16.3734 11.1079C16.3734 12.3162 15.9463 13.3475 15.0922 14.2017C14.238 15.0558 13.2067 15.4829 11.9984 15.4829ZM11.9984 12.9829C12.5192 12.9829 12.962 12.8006 13.3265 12.436C13.6911 12.0715 13.8734 11.6287 13.8734 11.1079C13.8734 10.5871 13.6911 10.1444 13.3265 9.77979C12.962 9.4152 12.5192 9.23291 11.9984 9.23291C11.4776 9.23291 11.0349 9.4152 10.6703 9.77979C10.3057 10.1444 10.1234 10.5871 10.1234 11.1079C10.1234 11.6287 10.3057 12.0715 10.6703 12.436C11.0349 12.8006 11.4776 12.9829 11.9984 12.9829ZM3.24841 25.4829C2.56091 25.4829 1.97237 25.2381 1.48279 24.7485C0.993205 24.259 0.748413 23.6704 0.748413 22.9829V5.48291C0.748413 4.79541 0.993205 4.20687 1.48279 3.71729C1.97237 3.2277 2.56091 2.98291 3.24841 2.98291H4.49841V0.48291H6.99841V2.98291H16.9984V0.48291H19.4984V2.98291H20.7484C21.4359 2.98291 22.0245 3.2277 22.514 3.71729C23.0036 4.20687 23.2484 4.79541 23.2484 5.48291V22.9829C23.2484 23.6704 23.0036 24.259 22.514 24.7485C22.0245 25.2381 21.4359 25.4829 20.7484 25.4829H3.24841Z" fill="#CDCDCD"/>
</svg>
