<svg width="137" height="57" viewBox="0 0 137 57" fill="none" xmlns="http://www.w3.org/2000/svg">
<rect x="0.855469" y="0.19165" width="136" height="56" rx="10" fill="#7AE229"/>
<path d="M34.6829 36.1917V20.9189H37.9119V33.5294H44.4595V36.1917H34.6829ZM51.7137 36.4154C50.5553 36.4154 49.5535 36.1693 48.7084 35.6771C47.8682 35.1799 47.2194 34.4889 46.762 33.6039C46.3046 32.714 46.0759 31.6824 46.0759 30.5091C46.0759 29.3259 46.3046 28.2918 46.762 27.4068C47.2194 26.5169 47.8682 25.8259 48.7084 25.3337C49.5535 24.8365 50.5553 24.588 51.7137 24.588C52.8721 24.588 53.8714 24.8365 54.7116 25.3337C55.5567 25.8259 56.208 26.5169 56.6654 27.4068C57.1228 28.2918 57.3515 29.3259 57.3515 30.5091C57.3515 31.6824 57.1228 32.714 56.6654 33.6039C56.208 34.4889 55.5567 35.1799 54.7116 35.6771C53.8714 36.1693 52.8721 36.4154 51.7137 36.4154ZM51.7286 33.9544C52.2556 33.9544 52.6956 33.8053 53.0486 33.507C53.4015 33.2037 53.6675 32.7911 53.8465 32.2691C54.0305 31.747 54.1224 31.1529 54.1224 30.4867C54.1224 29.8206 54.0305 29.2265 53.8465 28.7044C53.6675 28.1824 53.4015 27.7698 53.0486 27.4665C52.6956 27.1632 52.2556 27.0116 51.7286 27.0116C51.1966 27.0116 50.7492 27.1632 50.3863 27.4665C50.0283 27.7698 49.7574 28.1824 49.5734 28.7044C49.3944 29.2265 49.305 29.8206 49.305 30.4867C49.305 31.1529 49.3944 31.747 49.5734 32.2691C49.7574 32.7911 50.0283 33.2037 50.3863 33.507C50.7492 33.8053 51.1966 33.9544 51.7286 33.9544ZM61.3896 36.1917L58.2725 24.7371H61.4866L63.2615 32.4331H63.3659L65.2153 24.7371H68.3698L70.249 32.3884H70.346L72.091 24.7371H75.2977L72.1879 36.1917H68.8247L66.8559 28.9878H66.7142L64.7455 36.1917H61.3896Z" fill="white"/>
<path d="M94.3555 29.6978C94.1209 29.6982 93.8923 29.6233 93.7035 29.4843L84.8004 22.9145C84.6845 22.829 84.5867 22.7215 84.5124 22.5981C84.4382 22.4748 84.389 22.338 84.3676 22.1957C84.3245 21.9082 84.3974 21.6154 84.5703 21.3816C84.7432 21.1478 85.002 20.9923 85.2896 20.9491C85.5773 20.906 85.8704 20.9789 86.1043 21.1517L94.3555 27.2341L102.607 21.1517C102.722 21.0661 102.854 21.0042 102.994 20.9694C103.134 20.9347 103.279 20.9278 103.421 20.9491C103.564 20.9705 103.701 21.0197 103.824 21.0939C103.947 21.1681 104.055 21.2658 104.141 21.3816C104.226 21.4973 104.288 21.6288 104.323 21.7685C104.358 21.9082 104.365 22.0533 104.343 22.1957C104.322 22.338 104.273 22.4748 104.198 22.5981C104.124 22.7215 104.026 22.829 103.911 22.9145L95.0075 29.4843C94.8186 29.6233 94.5901 29.6982 94.3555 29.6978Z" fill="white"/>
<path d="M94.3555 35.4463C94.1209 35.4467 93.8923 35.3719 93.7035 35.2328L84.8004 28.6631C84.5664 28.4903 84.4108 28.2317 84.3676 27.9442C84.3245 27.6567 84.3974 27.3639 84.5703 27.1301C84.7432 26.8964 85.002 26.7408 85.2896 26.6977C85.5773 26.6546 85.8704 26.7274 86.1043 26.9002L94.3555 32.9827L102.607 26.9002C102.841 26.7274 103.134 26.6546 103.421 26.6977C103.709 26.7408 103.968 26.8964 104.141 27.1301C104.314 27.3639 104.386 27.6567 104.343 27.9442C104.3 28.2317 104.145 28.4903 103.911 28.6631L95.0075 35.2328C94.8186 35.3719 94.5901 35.4467 94.3555 35.4463Z" fill="white"/>
</svg>
