<svg width="26" height="26" viewBox="0 0 26 26" fill="none" xmlns="http://www.w3.org/2000/svg">
<path d="M2.62494 25.1853C1.95421 25.1853 1.38002 24.9465 0.902377 24.4688C0.424734 23.9912 0.185913 23.417 0.185913 22.7462V5.67308C0.185913 5.00235 0.424734 4.42816 0.902377 3.95052C1.38002 3.47287 1.95421 3.23405 2.62494 3.23405H13.5091L11.0701 5.67308H2.62494V22.7462H19.6981V14.2706L22.1371 11.8316V22.7462C22.1371 23.417 21.8983 23.9912 21.4207 24.4688C20.943 24.9465 20.3688 25.1853 19.6981 25.1853H2.62494ZM16.253 3.93527L17.9908 5.64259L9.94201 13.6914V15.4292H11.6493L19.7286 7.34991L21.4664 9.05722L13.3871 17.1365C13.1636 17.3601 12.9044 17.5379 12.6097 17.67C12.315 17.8021 12.005 17.8682 11.6798 17.8682H8.7225C8.37697 17.8682 8.08734 17.7513 7.8536 17.5176C7.61986 17.2839 7.50299 16.9942 7.50299 16.6487V13.6914C7.50299 13.3662 7.56396 13.0562 7.68591 12.7615C7.80786 12.4668 7.98063 12.2076 8.20421 11.9841L16.253 3.93527ZM21.4664 9.05722L16.253 3.93527L19.3018 0.886492C19.7896 0.398688 20.3739 0.154785 21.0548 0.154785C21.7357 0.154785 22.3099 0.398688 22.7774 0.886492L24.4847 2.6243C24.9522 3.09178 25.1859 3.66088 25.1859 4.33161C25.1859 5.00235 24.9522 5.57145 24.4847 6.03893L21.4664 9.05722Z" fill="white"/>
</svg>
