<svg width="25" height="25" viewBox="0 0 25 25" fill="none" xmlns="http://www.w3.org/2000/svg">
<mask id="mask0_113996_914" style="mask-type:alpha" maskUnits="userSpaceOnUse" x="0" y="0" width="25" height="25">
<rect x="0.666992" y="0.5" width="24" height="24" fill="#D9D9D9"/>
</mask>
<g mask="url(#mask0_113996_914)">
<path d="M3.00853 24.5149C2.3646 24.5149 1.81337 24.2856 1.35482 23.827C0.896267 23.3685 0.666992 22.8173 0.666992 22.1733V5.78259C0.666992 5.13866 0.896267 4.58743 1.35482 4.12888C1.81337 3.67033 2.3646 3.44105 3.00853 3.44105H13.4576L11.1161 5.78259H3.00853V22.1733H19.3993V14.0365L21.7408 11.695V22.1733C21.7408 22.8173 21.5115 23.3685 21.053 23.827C20.5944 24.2856 20.0432 24.5149 19.3993 24.5149H3.00853ZM16.0919 4.11424L17.7602 5.75332L10.0331 13.4804V15.1487H11.6722L19.4285 7.39239L21.0969 9.03147L13.3405 16.7878C13.1259 17.0024 12.8771 17.1732 12.5942 17.3C12.3112 17.4268 12.0137 17.4903 11.7015 17.4903H8.86236C8.53065 17.4903 8.25259 17.3781 8.02819 17.1537C7.80379 16.9293 7.6916 16.6512 7.6916 16.3195V13.4804C7.6916 13.1682 7.75013 12.8706 7.86721 12.5877C7.98429 12.3047 8.15015 12.0559 8.36479 11.8413L16.0919 4.11424ZM21.0969 9.03147L16.0919 4.11424L19.0188 1.18732C19.4871 0.719017 20.0481 0.484863 20.7017 0.484863C21.3554 0.484863 21.9067 0.719017 22.3555 1.18732L23.9945 2.85567C24.4433 3.30446 24.6677 3.85082 24.6677 4.49474C24.6677 5.13866 24.4433 5.68502 23.9945 6.13382L21.0969 9.03147Z" fill="#CDCDCD"/>
</g>
</svg>
