<svg width="122" height="17" viewBox="0 0 122 17" fill="none" xmlns="http://www.w3.org/2000/svg">
<path d="M14.0514 6.07422H10.7851C10.7255 5.65163 10.6036 5.27628 10.4197 4.94815C10.2358 4.61506 9.9996 4.33168 9.71125 4.09801C9.4229 3.86435 9.0898 3.68537 8.71196 3.56108C8.33909 3.43679 7.9339 3.37465 7.4964 3.37465C6.70592 3.37465 6.01736 3.57102 5.43071 3.96378C4.84406 4.35156 4.38916 4.91832 4.06601 5.66406C3.74285 6.40483 3.58128 7.30469 3.58128 8.36364C3.58128 9.45241 3.74285 10.3672 4.06601 11.108C4.39413 11.8487 4.85152 12.408 5.43817 12.7859C6.02481 13.1637 6.70344 13.3526 7.47403 13.3526C7.90656 13.3526 8.30677 13.2955 8.67467 13.1811C9.04754 13.0668 9.37815 12.9002 9.6665 12.6815C9.95486 12.4577 10.1935 12.1868 10.3824 11.8686C10.5763 11.5504 10.7105 11.1875 10.7851 10.7798L14.0514 10.7947C13.9669 11.4957 13.7556 12.1719 13.4176 12.8232C13.0845 13.4695 12.6345 14.0487 12.0678 14.5607C11.506 15.0678 10.8348 15.4705 10.0543 15.7688C9.27872 16.0621 8.40123 16.2088 7.42183 16.2088C6.05961 16.2088 4.84157 15.9006 3.76771 15.2841C2.69882 14.6676 1.85365 13.7752 1.2322 12.6069C0.615723 11.4386 0.307484 10.0241 0.307484 8.36364C0.307484 6.69815 0.620694 5.28125 1.24711 4.11293C1.87354 2.9446 2.72368 2.05469 3.79754 1.44318C4.8714 0.826704 6.0795 0.518465 7.42183 0.518465C8.30677 0.518465 9.12709 0.642755 9.88277 0.891335C10.6434 1.13991 11.3171 1.50284 11.9037 1.98011C12.4904 2.45241 12.9676 3.0316 13.3355 3.71768C13.7084 4.40376 13.947 5.18928 14.0514 6.07422ZM16.3073 16V4.54545H19.3872V6.54403H19.5065C19.7153 5.8331 20.0658 5.29616 20.558 4.93324C21.0502 4.56534 21.617 4.38139 22.2583 4.38139C22.4174 4.38139 22.5889 4.39133 22.7729 4.41122C22.9568 4.43111 23.1184 4.45845 23.2576 4.49325V7.31214C23.1084 7.2674 22.9021 7.22763 22.6386 7.19283C22.3751 7.15803 22.134 7.14062 21.9153 7.14062C21.4479 7.14062 21.0303 7.24254 20.6624 7.44638C20.2995 7.64524 20.0111 7.92365 19.7974 8.2816C19.5886 8.63956 19.4842 9.0522 19.4842 9.51953V16H16.3073ZM29.587 16.2237C28.4088 16.2237 27.3946 15.9851 26.5444 15.5078C25.6993 15.0256 25.048 14.3445 24.5906 13.4645C24.1332 12.5795 23.9045 11.533 23.9045 10.3249C23.9045 9.14666 24.1332 8.11257 24.5906 7.22266C25.048 6.33274 25.6918 5.6392 26.5221 5.14204C27.3573 4.64489 28.3367 4.39631 29.4603 4.39631C30.216 4.39631 30.9194 4.51811 31.5707 4.76172C32.227 5.00035 32.7987 5.3608 33.2859 5.84304C33.7781 6.32528 34.1609 6.93182 34.4343 7.66264C34.7078 8.38849 34.8445 9.23864 34.8445 10.2131V11.0856H25.1723V9.11683H31.8541C31.8541 8.65945 31.7547 8.25426 31.5558 7.90128C31.3569 7.5483 31.081 7.27237 30.728 7.07351C30.38 6.86967 29.9748 6.76776 29.5125 6.76776C29.0302 6.76776 28.6027 6.87962 28.2298 7.10334C27.8619 7.32209 27.5736 7.6179 27.3647 7.99077C27.1559 8.35866 27.0491 8.76882 27.0441 9.22124V11.093C27.0441 11.6598 27.1485 12.1495 27.3573 12.5621C27.5711 12.9748 27.8718 13.293 28.2596 13.5167C28.6474 13.7404 29.1073 13.8523 29.6392 13.8523C29.9922 13.8523 30.3154 13.8026 30.6087 13.7031C30.902 13.6037 31.1531 13.4545 31.3619 13.2557C31.5707 13.0568 31.7298 12.8132 31.8392 12.5249L34.7774 12.7188C34.6282 13.4247 34.3225 14.0412 33.8601 14.5682C33.4027 15.0902 32.8111 15.4979 32.0853 15.7912C31.3644 16.0795 30.5316 16.2237 29.587 16.2237ZM40.184 16.2163C39.4532 16.2163 38.8019 16.0895 38.2302 15.8359C37.6584 15.5774 37.206 15.1971 36.8729 14.695C36.5448 14.1879 36.3807 13.5565 36.3807 12.8008C36.3807 12.1644 36.4976 11.63 36.7312 11.1974C36.9649 10.7649 37.2831 10.4169 37.6858 10.1534C38.0885 9.88991 38.5459 9.69105 39.0579 9.55682C39.575 9.42259 40.1169 9.32812 40.6836 9.27344C41.3498 9.20384 41.8868 9.1392 42.2944 9.07955C42.7021 9.01491 42.9979 8.92045 43.1819 8.79616C43.3658 8.67187 43.4578 8.48793 43.4578 8.24432V8.19957C43.4578 7.72727 43.3086 7.36186 43.0103 7.10334C42.717 6.84481 42.2994 6.71555 41.7575 6.71555C41.1858 6.71555 40.7309 6.84233 40.3928 7.09588C40.0547 7.34446 39.831 7.65767 39.7216 8.03551L36.7834 7.79688C36.9326 7.10085 37.2259 6.49929 37.6634 5.99219C38.1009 5.48011 38.6652 5.08736 39.3562 4.81392C40.0522 4.53551 40.8576 4.39631 41.7724 4.39631C42.4088 4.39631 43.0178 4.47088 43.5995 4.62003C44.1861 4.76918 44.7057 5.00035 45.1581 5.31356C45.6155 5.62678 45.9759 6.02947 46.2394 6.52166C46.5029 7.00888 46.6346 7.59304 46.6346 8.27415V16H43.6218V14.4116H43.5324C43.3484 14.7695 43.1023 15.0852 42.7941 15.3587C42.4858 15.6271 42.1155 15.8384 41.6829 15.9925C41.2504 16.1417 40.7508 16.2163 40.184 16.2163ZM41.0938 14.0238C41.5611 14.0238 41.9738 13.9318 42.3317 13.7479C42.6897 13.5589 42.9706 13.3054 43.1744 12.9872C43.3782 12.669 43.4802 12.3086 43.4802 11.9059V10.6903C43.3807 10.755 43.244 10.8146 43.07 10.8693C42.901 10.919 42.7096 10.9663 42.4958 11.011C42.282 11.0508 42.0682 11.0881 41.8544 11.1229C41.6407 11.1527 41.4468 11.18 41.2728 11.2049C40.8999 11.2596 40.5743 11.3466 40.2959 11.4659C40.0174 11.5852 39.8012 11.7468 39.6471 11.9506C39.4929 12.1495 39.4159 12.3981 39.4159 12.6964C39.4159 13.1289 39.5725 13.4595 39.8857 13.6882C40.2039 13.9119 40.6066 14.0238 41.0938 14.0238ZM55.192 4.54545V6.93182H48.2939V4.54545H55.192ZM49.86 1.80114H53.0368V12.4801C53.0368 12.7734 53.0815 13.0021 53.171 13.1662C53.2605 13.3253 53.3848 13.4371 53.5439 13.5018C53.708 13.5664 53.8969 13.5987 54.1107 13.5987C54.2598 13.5987 54.409 13.5863 54.5581 13.5614C54.7073 13.5316 54.8216 13.5092 54.9011 13.4943L55.4008 15.8583C55.2417 15.908 55.018 15.9652 54.7296 16.0298C54.4413 16.0994 54.0908 16.1417 53.6781 16.1566C52.9125 16.1864 52.2413 16.0845 51.6646 15.8509C51.0929 15.6172 50.6479 15.2543 50.3298 14.7621C50.0116 14.2699 49.855 13.6484 49.86 12.8977V1.80114ZM62.3585 16.2237C61.1803 16.2237 60.1661 15.9851 59.3159 15.5078C58.4707 15.0256 57.8195 14.3445 57.3621 13.4645C56.9047 12.5795 56.676 11.533 56.676 10.3249C56.676 9.14666 56.9047 8.11257 57.3621 7.22266C57.8195 6.33274 58.4633 5.6392 59.2935 5.14204C60.1288 4.64489 61.1082 4.39631 62.2318 4.39631C62.9874 4.39631 63.6909 4.51811 64.3422 4.76172C64.9984 5.00035 65.5702 5.3608 66.0574 5.84304C66.5496 6.32528 66.9324 6.93182 67.2058 7.66264C67.4793 8.38849 67.616 9.23864 67.616 10.2131V11.0856H57.9438V9.11683H64.6256C64.6256 8.65945 64.5261 8.25426 64.3273 7.90128C64.1284 7.5483 63.8525 7.27237 63.4995 7.07351C63.1515 6.86967 62.7463 6.76776 62.284 6.76776C61.8017 6.76776 61.3742 6.87962 61.0013 7.10334C60.6334 7.32209 60.345 7.6179 60.1362 7.99077C59.9274 8.35866 59.8205 8.76882 59.8156 9.22124V11.093C59.8156 11.6598 59.92 12.1495 60.1288 12.5621C60.3426 12.9748 60.6433 13.293 61.0311 13.5167C61.4189 13.7404 61.8788 13.8523 62.4107 13.8523C62.7637 13.8523 63.0869 13.8026 63.3802 13.7031C63.6735 13.6037 63.9246 13.4545 64.1334 13.2557C64.3422 13.0568 64.5013 12.8132 64.6107 12.5249L67.5489 12.7188C67.3997 13.4247 67.094 14.0412 66.6316 14.5682C66.1742 15.0902 65.5826 15.4979 64.8568 15.7912C64.1359 16.0795 63.3031 16.2237 62.3585 16.2237ZM74.0275 3.38956V0.727272H86.5708V3.38956H81.895V16H78.7033V3.38956H74.0275ZM90.2846 16.2163C89.5538 16.2163 88.9025 16.0895 88.3307 15.8359C87.759 15.5774 87.3066 15.1971 86.9735 14.695C86.6454 14.1879 86.4813 13.5565 86.4813 12.8008C86.4813 12.1644 86.5981 11.63 86.8318 11.1974C87.0655 10.7649 87.3837 10.4169 87.7864 10.1534C88.1891 9.88991 88.6464 9.69105 89.1585 9.55682C89.6756 9.42259 90.2175 9.32812 90.7842 9.27344C91.4504 9.20384 91.9873 9.1392 92.395 9.07955C92.8027 9.01491 93.0985 8.92045 93.2824 8.79616C93.4664 8.67187 93.5584 8.48793 93.5584 8.24432V8.19957C93.5584 7.72727 93.4092 7.36186 93.1109 7.10334C92.8176 6.84481 92.4 6.71555 91.8581 6.71555C91.2864 6.71555 90.8315 6.84233 90.4934 7.09588C90.1553 7.34446 89.9316 7.65767 89.8222 8.03551L86.884 7.79688C87.0332 7.10085 87.3265 6.49929 87.764 5.99219C88.2015 5.48011 88.7658 5.08736 89.4568 4.81392C90.1528 4.53551 90.9582 4.39631 91.873 4.39631C92.5094 4.39631 93.1184 4.47088 93.7001 4.62003C94.2867 4.76918 94.8062 5.00035 95.2587 5.31356C95.716 5.62678 96.0765 6.02947 96.34 6.52166C96.6035 7.00888 96.7352 7.59304 96.7352 8.27415V16H93.7224V14.4116H93.6329C93.449 14.7695 93.2029 15.0852 92.8947 15.3587C92.5864 15.6271 92.216 15.8384 91.7835 15.9925C91.351 16.1417 90.8513 16.2163 90.2846 16.2163ZM91.1944 14.0238C91.6617 14.0238 92.0744 13.9318 92.4323 13.7479C92.7903 13.5589 93.0712 13.3054 93.275 12.9872C93.4788 12.669 93.5807 12.3086 93.5807 11.9059V10.6903C93.4813 10.755 93.3446 10.8146 93.1706 10.8693C93.0016 10.919 92.8101 10.9663 92.5964 11.011C92.3826 11.0508 92.1688 11.0881 91.955 11.1229C91.7413 11.1527 91.5474 11.18 91.3734 11.2049C91.0005 11.2596 90.6748 11.3466 90.3964 11.4659C90.118 11.5852 89.9018 11.7468 89.7476 11.9506C89.5935 12.1495 89.5165 12.3981 89.5165 12.6964C89.5165 13.1289 89.6731 13.4595 89.9863 13.6882C90.3045 13.9119 90.7072 14.0238 91.1944 14.0238ZM108.73 7.81179L105.822 7.99077C105.772 7.74219 105.665 7.51847 105.501 7.3196C105.337 7.11577 105.121 6.95419 104.853 6.83487C104.589 6.71058 104.273 6.64844 103.905 6.64844C103.413 6.64844 102.998 6.75284 102.66 6.96165C102.322 7.16548 102.153 7.43892 102.153 7.78196C102.153 8.0554 102.262 8.28658 102.481 8.4755C102.7 8.66442 103.075 8.81605 103.607 8.9304L105.68 9.34801C106.794 9.5767 107.624 9.9446 108.171 10.4517C108.718 10.9588 108.991 11.625 108.991 12.4503C108.991 13.201 108.77 13.8597 108.328 14.4265C107.89 14.9933 107.289 15.4357 106.523 15.7539C105.762 16.0671 104.885 16.2237 103.891 16.2237C102.374 16.2237 101.166 15.908 100.266 15.2766C99.3714 14.6403 98.8469 13.7752 98.6928 12.6815L101.817 12.5174C101.912 12.9798 102.141 13.3327 102.504 13.5763C102.866 13.815 103.331 13.9343 103.898 13.9343C104.455 13.9343 104.902 13.8274 105.24 13.6136C105.583 13.3949 105.757 13.114 105.762 12.771C105.757 12.4826 105.636 12.2464 105.397 12.0625C105.158 11.8736 104.79 11.7294 104.293 11.63L102.31 11.2347C101.191 11.011 100.358 10.6232 99.8114 10.0714C99.2695 9.51953 98.9985 8.81605 98.9985 7.96094C98.9985 7.22514 99.1974 6.59126 99.5951 6.0593C99.9978 5.52734 100.562 5.11719 101.288 4.82883C102.019 4.54048 102.874 4.39631 103.853 4.39631C105.3 4.39631 106.439 4.70206 107.269 5.31356C108.104 5.92507 108.591 6.75781 108.73 7.81179ZM113.87 12.7038L113.878 8.89311H114.34L118.009 4.54545H121.656L116.727 10.3026H115.973L113.87 12.7038ZM110.992 16V0.727272H114.169V16H110.992ZM118.151 16L114.78 11.011L116.898 8.76633L121.872 16H118.151Z" fill="white"/>
</svg>
