<svg width="145" height="65" viewBox="0 0 145 65" fill="none" xmlns="http://www.w3.org/2000/svg">
<g filter="url(#filter0_d_156_933)">
<rect x="4.85547" y="4.19165" width="136" height="56" rx="10" fill="white"/>
<path d="M40.6168 39.1917V24.6462H42.3782V37.6292H49.1396V39.1917H40.6168ZM56.0714 39.4189C55.0865 39.4189 54.2224 39.1845 53.479 38.7158C52.7404 38.247 52.1628 37.5913 51.7461 36.7485C51.3342 35.9057 51.1282 34.9208 51.1282 33.7939C51.1282 32.6576 51.3342 31.6656 51.7461 30.8181C52.1628 29.9705 52.7404 29.3124 53.479 28.8436C54.2224 28.3749 55.0865 28.1405 56.0714 28.1405C57.0562 28.1405 57.918 28.3749 58.6566 28.8436C59.4 29.3124 59.9776 29.9705 60.3896 30.8181C60.8062 31.6656 61.0146 32.6576 61.0146 33.7939C61.0146 34.9208 60.8062 35.9057 60.3896 36.7485C59.9776 37.5913 59.4 38.247 58.6566 38.7158C57.918 39.1845 57.0562 39.4189 56.0714 39.4189ZM56.0714 37.9132C56.8195 37.9132 57.435 37.7215 57.918 37.338C58.4009 36.9544 58.7584 36.4502 58.9904 35.8252C59.2224 35.2002 59.3384 34.5231 59.3384 33.7939C59.3384 33.0648 59.2224 32.3853 58.9904 31.7556C58.7584 31.1258 58.4009 30.6168 57.918 30.2286C57.435 29.8403 56.8195 29.6462 56.0714 29.6462C55.3233 29.6462 54.7077 29.8403 54.2248 30.2286C53.7418 30.6168 53.3844 31.1258 53.1523 31.7556C52.9203 32.3853 52.8043 33.0648 52.8043 33.7939C52.8043 34.5231 52.9203 35.2002 53.1523 35.8252C53.3844 36.4502 53.7418 36.9544 54.2248 37.338C54.7077 37.7215 55.3233 37.9132 56.0714 37.9132ZM65.6737 39.1917L62.3498 28.2826H64.1112L66.4691 36.6348H66.5827L68.9123 28.2826H70.7021L73.0032 36.6064H73.1168L75.4748 28.2826H77.2362L73.9123 39.1917H72.2646L69.8782 30.811H69.7077L67.3214 39.1917H65.6737Z" fill="black"/>
<path d="M96.8555 33.6978C96.6209 33.6982 96.3923 33.6233 96.2035 33.4843L87.3004 26.9145C87.1845 26.829 87.0867 26.7215 87.0124 26.5981C86.9382 26.4748 86.889 26.338 86.8676 26.1957C86.8245 25.9082 86.8974 25.6154 87.0703 25.3816C87.2432 25.1478 87.502 24.9923 87.7896 24.9491C88.0773 24.906 88.3704 24.9789 88.6043 25.1517L96.8555 31.2341L105.107 25.1517C105.222 25.0661 105.354 25.0042 105.494 24.9694C105.634 24.9347 105.779 24.9278 105.921 24.9491C106.064 24.9705 106.201 25.0197 106.324 25.0939C106.447 25.1681 106.555 25.2658 106.641 25.3816C106.726 25.4973 106.788 25.6288 106.823 25.7685C106.858 25.9082 106.865 26.0533 106.843 26.1957C106.822 26.338 106.773 26.4748 106.698 26.5981C106.624 26.7215 106.526 26.829 106.411 26.9145L97.5075 33.4843C97.3186 33.6233 97.0901 33.6982 96.8555 33.6978Z" fill="#7AE229"/>
<path d="M96.8555 39.4463C96.6209 39.4467 96.3923 39.3719 96.2035 39.2328L87.3004 32.6631C87.0664 32.4903 86.9108 32.2317 86.8676 31.9442C86.8245 31.6567 86.8974 31.3639 87.0703 31.1301C87.2432 30.8964 87.502 30.7408 87.7896 30.6977C88.0773 30.6546 88.3704 30.7274 88.6043 30.9002L96.8555 36.9827L105.107 30.9002C105.341 30.7274 105.634 30.6546 105.921 30.6977C106.209 30.7408 106.468 30.8964 106.641 31.1301C106.814 31.3639 106.886 31.6567 106.843 31.9442C106.8 32.2317 106.645 32.4903 106.411 32.6631L97.5075 39.2328C97.3186 39.3719 97.0901 39.4467 96.8555 39.4463Z" fill="#7AE229"/>
</g>
<defs>
<filter id="filter0_d_156_933" x="0.855469" y="0.19165" width="144" height="64" filterUnits="userSpaceOnUse" color-interpolation-filters="sRGB">
<feFlood flood-opacity="0" result="BackgroundImageFix"/>
<feColorMatrix in="SourceAlpha" type="matrix" values="0 0 0 0 0 0 0 0 0 0 0 0 0 0 0 0 0 0 127 0" result="hardAlpha"/>
<feOffset/>
<feGaussianBlur stdDeviation="2"/>
<feColorMatrix type="matrix" values="0 0 0 0 0 0 0 0 0 0 0 0 0 0 0 0 0 0 0.1 0"/>
<feBlend mode="normal" in2="BackgroundImageFix" result="effect1_dropShadow_156_933"/>
<feBlend mode="normal" in="SourceGraphic" in2="effect1_dropShadow_156_933" result="shape"/>
</filter>
</defs>
</svg>
