<svg width="145" height="65" viewBox="0 0 145 65" fill="none" xmlns="http://www.w3.org/2000/svg">
<g filter="url(#filter0_d_156_926)">
<rect x="4.85547" y="4.19165" width="136" height="56" rx="10" fill="white"/>
<path d="M22.6168 24.6462H24.7191L29.6623 36.7201H29.8327L34.7759 24.6462H36.8782V39.1917H35.2305V28.1405H35.0884L30.543 39.1917H28.9521L24.4066 28.1405H24.2646V39.1917H22.6168V24.6462ZM44.7564 39.4189C43.7053 39.4189 42.7985 39.1869 42.0362 38.7229C41.2786 38.2542 40.6939 37.6007 40.282 36.7627C39.8748 35.9199 39.6712 34.9398 39.6712 33.8223C39.6712 32.7049 39.8748 31.7201 40.282 30.8678C40.6939 30.0108 41.2668 29.3432 42.0007 28.8649C42.7393 28.382 43.6011 28.1405 44.5859 28.1405C45.1541 28.1405 45.7152 28.2352 46.2692 28.4246C46.8232 28.614 47.3274 28.9218 47.782 29.3479C48.2365 29.7693 48.5987 30.328 48.8686 31.024C49.1385 31.7201 49.2734 32.5771 49.2734 33.5951V34.3053H40.8643V32.8564H47.5689C47.5689 32.2409 47.4458 31.6916 47.1996 31.2087C46.9581 30.7257 46.6125 30.3446 46.1626 30.0652C45.7176 29.7859 45.192 29.6462 44.5859 29.6462C43.9183 29.6462 43.3407 29.8119 42.853 30.1434C42.37 30.4701 41.9983 30.8962 41.7379 31.4218C41.4775 31.9473 41.3473 32.5108 41.3473 33.1121V34.078C41.3473 34.9019 41.4893 35.6003 41.7734 36.1732C42.0623 36.7414 42.4624 37.1746 42.9737 37.4729C43.4851 37.7665 44.0793 37.9132 44.7564 37.9132C45.1967 37.9132 45.5945 37.8517 45.9496 37.7286C46.3094 37.6007 46.6196 37.4113 46.88 37.1604C47.1404 36.9047 47.3416 36.5875 47.4837 36.2087L49.103 36.6632C48.9325 37.2125 48.6461 37.6954 48.2436 38.1121C47.8411 38.524 47.344 38.846 46.7521 39.078C46.1603 39.3053 45.495 39.4189 44.7564 39.4189ZM55.9425 39.4189C55.0334 39.4189 54.2308 39.1893 53.5348 38.73C52.8388 38.266 52.2943 37.6126 51.9013 36.7698C51.5083 35.9222 51.3118 34.9208 51.3118 33.7655C51.3118 32.6197 51.5083 31.6254 51.9013 30.7826C52.2943 29.9398 52.8411 29.2887 53.5419 28.8294C54.2427 28.3702 55.0523 28.1405 55.9709 28.1405C56.6811 28.1405 57.2422 28.2589 57.6541 28.4956C58.0708 28.7276 58.388 28.9928 58.6058 29.2911C58.8284 29.5846 59.0012 29.8261 59.1243 30.0155H59.2663V24.6462H60.9425V39.1917H59.3232V37.5155H59.1243C59.0012 37.7144 58.826 37.9653 58.5987 38.2684C58.3714 38.5667 58.0471 38.8342 57.6257 39.0709C57.2043 39.3029 56.6432 39.4189 55.9425 39.4189ZM56.1697 37.9132C56.8421 37.9132 57.4103 37.7381 57.8743 37.3877C58.3383 37.0326 58.6911 36.5425 58.9325 35.9175C59.174 35.2878 59.2947 34.561 59.2947 33.7371C59.2947 32.9227 59.1764 32.2101 58.9396 31.5993C58.7029 30.9838 58.3525 30.5056 57.8885 30.1647C57.4245 29.819 56.8516 29.6462 56.1697 29.6462C55.4595 29.6462 54.8677 29.8285 54.3942 30.1931C53.9254 30.5529 53.5727 31.043 53.3359 31.6632C53.1039 32.2788 52.9879 32.9701 52.9879 33.7371C52.9879 34.5136 53.1063 35.2191 53.343 35.8536C53.5845 36.4833 53.9396 36.9852 54.4084 37.3593C54.8819 37.7286 55.469 37.9132 56.1697 37.9132ZM64.245 39.1917V28.2826H65.9212V39.1917H64.245ZM65.0973 26.4644C64.7706 26.4644 64.4889 26.3531 64.2521 26.1306C64.0201 25.908 63.9041 25.6405 63.9041 25.328C63.9041 25.0155 64.0201 24.748 64.2521 24.5255C64.4889 24.3029 64.7706 24.1917 65.0973 24.1917C65.424 24.1917 65.7034 24.3029 65.9354 24.5255C66.1721 24.748 66.2905 25.0155 66.2905 25.328C66.2905 25.6405 66.1721 25.908 65.9354 26.1306C65.7034 26.3531 65.424 26.4644 65.0973 26.4644ZM75.8661 34.7314V28.2826H77.5423V39.1917H75.8661V37.3451H75.7525C75.4968 37.899 75.0991 38.3702 74.5593 38.7584C74.0195 39.1419 73.3377 39.3337 72.5138 39.3337C71.832 39.3337 71.226 39.1845 70.6957 38.8863C70.1654 38.5832 69.7487 38.1287 69.4457 37.5226C69.1426 36.9118 68.9911 36.1424 68.9911 35.2144V28.2826H70.6673V35.1007C70.6673 35.8962 70.8898 36.5307 71.3349 37.0042C71.7847 37.4776 72.3576 37.7144 73.0536 37.7144C73.4703 37.7144 73.8941 37.6078 74.3249 37.3948C74.7605 37.1817 75.1251 36.855 75.4187 36.4147C75.717 35.9743 75.8661 35.4132 75.8661 34.7314ZM80.6122 39.1917V28.2826H82.2315V29.9871H82.3736C82.6009 29.4047 82.9678 28.9525 83.4744 28.6306C83.9811 28.3039 84.5895 28.1405 85.2997 28.1405C86.0194 28.1405 86.6184 28.3039 87.0966 28.6306C87.5795 28.9525 87.956 29.4047 88.2259 29.9871H88.3395C88.6188 29.4237 89.0379 28.9762 89.5966 28.6448C90.1553 28.3086 90.8253 28.1405 91.6065 28.1405C92.5819 28.1405 93.3797 28.4459 94 29.0567C94.6203 29.6628 94.9304 30.6074 94.9304 31.8905V39.1917H93.2543V31.8905C93.2543 31.0856 93.0341 30.5103 92.5938 30.1647C92.1534 29.819 91.6349 29.6462 91.0384 29.6462C90.2713 29.6462 89.6771 29.8782 89.2557 30.3422C88.8343 30.8015 88.6236 31.3839 88.6236 32.0894V39.1917H86.919V31.7201C86.919 31.0998 86.7178 30.6003 86.3153 30.2215C85.9129 29.838 85.3944 29.6462 84.7599 29.6462C84.3243 29.6462 83.9171 29.7622 83.5384 29.9942C83.1643 30.2262 82.8613 30.5482 82.6293 30.9601C82.402 31.3673 82.2884 31.8384 82.2884 32.3735V39.1917H80.6122Z" fill="black"/>
<g clip-path="url(#clip0_156_926)">
<path d="M123.76 35.9169H105.951C105.661 35.9169 105.382 35.8006 105.176 35.5936C104.971 35.3866 104.855 35.1058 104.855 34.8131C104.855 34.5203 104.971 34.2396 105.176 34.0325C105.382 33.8255 105.661 33.7092 105.951 33.7092H123.76C124.05 33.7092 124.329 33.8255 124.534 34.0325C124.74 34.2396 124.855 34.5203 124.855 34.8131C124.855 35.1058 124.74 35.3866 124.534 35.5936C124.329 35.8006 124.05 35.9169 123.76 35.9169Z" fill="#FFA800"/>
<path d="M123.76 30.6738H105.951C105.661 30.6738 105.382 30.5575 105.176 30.3505C104.971 30.1434 104.855 29.8627 104.855 29.5699C104.855 29.2772 104.971 28.9964 105.176 28.7894C105.382 28.5824 105.661 28.4661 105.951 28.4661H123.76C124.05 28.4661 124.329 28.5824 124.534 28.7894C124.74 28.9964 124.855 29.2772 124.855 29.5699C124.855 29.8627 124.74 30.1434 124.534 30.3505C124.329 30.5575 124.05 30.6738 123.76 30.6738Z" fill="#FFA800"/>
</g>
</g>
<defs>
<filter id="filter0_d_156_926" x="0.855469" y="0.19165" width="144" height="64" filterUnits="userSpaceOnUse" color-interpolation-filters="sRGB">
<feFlood flood-opacity="0" result="BackgroundImageFix"/>
<feColorMatrix in="SourceAlpha" type="matrix" values="0 0 0 0 0 0 0 0 0 0 0 0 0 0 0 0 0 0 127 0" result="hardAlpha"/>
<feOffset/>
<feGaussianBlur stdDeviation="2"/>
<feColorMatrix type="matrix" values="0 0 0 0 0 0 0 0 0 0 0 0 0 0 0 0 0 0 0.1 0"/>
<feBlend mode="normal" in2="BackgroundImageFix" result="effect1_dropShadow_156_926"/>
<feBlend mode="normal" in="SourceGraphic" in2="effect1_dropShadow_156_926" result="shape"/>
</filter>
<clipPath id="clip0_156_926">
<rect width="20" height="7.45098" fill="white" transform="translate(104.855 28.4661)"/>
</clipPath>
</defs>
</svg>
