<svg width="137" height="57" viewBox="0 0 137 57" fill="none" xmlns="http://www.w3.org/2000/svg">
<rect x="0.855469" y="0.19165" width="136" height="56" rx="10" fill="#FFA800"/>
<path d="M14.1829 20.9189H18.1651L22.3711 31.1803H22.5501L26.756 20.9189H30.7383V36.1917H27.6062V26.251H27.4794L23.527 36.1171H21.3942L17.4418 26.2137H17.315V36.1917H14.1829V20.9189ZM38.5592 36.4154C37.3809 36.4154 36.3667 36.1767 35.5166 35.6995C34.6714 35.2172 34.0202 34.5361 33.5628 33.6561C33.1054 32.7712 32.8767 31.7247 32.8767 30.5166C32.8767 29.3383 33.1054 28.3042 33.5628 27.4143C34.0202 26.5244 34.664 25.8309 35.4942 25.3337C36.3295 24.8365 37.3089 24.588 38.4324 24.588C39.1881 24.588 39.8916 24.7098 40.5429 24.9534C41.1991 25.192 41.7709 25.5524 42.2581 26.0347C42.7503 26.5169 43.1331 27.1235 43.4065 27.8543C43.68 28.5801 43.8167 29.4303 43.8167 30.4047V31.2772H34.1444V29.3085H40.8263C40.8263 28.8511 40.7268 28.4459 40.528 28.0929C40.3291 27.7399 40.0532 27.464 39.7002 27.2652C39.3522 27.0613 38.947 26.9594 38.4846 26.9594C38.0024 26.9594 37.5748 27.0713 37.202 27.295C36.8341 27.5137 36.5457 27.8095 36.3369 28.1824C36.1281 28.5503 36.0212 28.9605 36.0162 29.4129V31.2847C36.0162 31.8515 36.1207 32.3412 36.3295 32.7538C36.5432 33.1664 36.844 33.4846 37.2318 33.7083C37.6196 33.9321 38.0795 34.0439 38.6114 34.0439C38.9644 34.0439 39.2876 33.9942 39.5809 33.8948C39.8742 33.7953 40.1253 33.6462 40.3341 33.4473C40.5429 33.2485 40.702 33.0049 40.8113 32.7165L43.7496 32.9104C43.6004 33.6164 43.2947 34.2328 42.8323 34.7598C42.3749 35.2818 41.7833 35.6895 41.0574 35.9828C40.3366 36.2712 39.5038 36.4154 38.5592 36.4154ZM50.1107 36.3781C49.2407 36.3781 48.4527 36.1544 47.7467 35.7069C47.0457 35.2545 46.4889 34.5908 46.0763 33.7158C45.6686 32.8358 45.4648 31.757 45.4648 30.4793C45.4648 29.1668 45.676 28.0755 46.0986 27.2055C46.5212 26.3305 47.083 25.6767 47.784 25.2442C48.49 24.8067 49.2631 24.588 50.1032 24.588C50.7446 24.588 51.279 24.6973 51.7066 24.9161C52.1391 25.1299 52.4871 25.3983 52.7506 25.7215C53.0191 26.0397 53.2229 26.3529 53.3621 26.6611H53.4591V20.9189H56.6285V36.1917H53.4964V34.3571H53.3621C53.213 34.6753 53.0017 34.991 52.7282 35.3042C52.4598 35.6125 52.1093 35.8685 51.6768 36.0723C51.2492 36.2762 50.7272 36.3781 50.1107 36.3781ZM51.1175 33.85C51.6295 33.85 52.0621 33.7108 52.415 33.4324C52.773 33.149 53.0464 32.7538 53.2354 32.2467C53.4292 31.7396 53.5262 31.1455 53.5262 30.4644C53.5262 29.7833 53.4317 29.1917 53.2428 28.6895C53.0539 28.1874 52.7805 27.7996 52.4225 27.5262C52.0645 27.2527 51.6295 27.116 51.1175 27.116C50.5954 27.116 50.1555 27.2577 49.7975 27.5411C49.4395 27.8245 49.1686 28.2172 48.9846 28.7193C48.8007 29.2215 48.7087 29.8032 48.7087 30.4644C48.7087 31.1306 48.8007 31.7197 48.9846 32.2318C49.1736 32.7389 49.4445 33.1366 49.7975 33.425C50.1555 33.7083 50.5954 33.85 51.1175 33.85ZM59.2404 36.1917V24.7371H62.4173V36.1917H59.2404ZM60.8363 23.2605C60.364 23.2605 59.9588 23.1039 59.6207 22.7907C59.2876 22.4725 59.1211 22.0922 59.1211 21.6497C59.1211 21.2122 59.2876 20.8369 59.6207 20.5237C59.9588 20.2055 60.364 20.0464 60.8363 20.0464C61.3086 20.0464 61.7113 20.2055 62.0444 20.5237C62.3825 20.8369 62.5515 21.2122 62.5515 21.6497C62.5515 22.0922 62.3825 22.4725 62.0444 22.7907C61.7113 23.1039 61.3086 23.2605 60.8363 23.2605ZM72.3076 31.3145V24.7371H75.4845V36.1917H72.4344V34.111H72.3151C72.0566 34.7822 71.6265 35.3216 71.0249 35.7293C70.4284 36.137 69.7 36.3408 68.8399 36.3408C68.0743 36.3408 67.4007 36.1668 66.819 35.8188C66.2373 35.4708 65.7824 34.9761 65.4543 34.3348C65.1311 33.6934 64.9671 32.9253 64.9621 32.0304V24.7371H68.1389V31.4637C68.1439 32.1398 68.3254 32.6742 68.6833 33.067C69.0413 33.4598 69.521 33.6561 70.1226 33.6561C70.5054 33.6561 70.8634 33.5691 71.1965 33.3951C71.5296 33.2162 71.798 32.9527 72.0019 32.6046C72.2107 32.2566 72.3126 31.8266 72.3076 31.3145ZM78.0256 36.1917V24.7371H81.0533V26.7581H81.1875C81.4261 26.0869 81.8239 25.5574 82.3807 25.1696C82.9375 24.7818 83.6037 24.588 84.3793 24.588C85.1648 24.588 85.8335 24.7843 86.3853 25.1771C86.9371 25.5649 87.305 26.0919 87.489 26.7581H87.6083C87.842 26.1018 88.2646 25.5773 88.8761 25.1845C89.4925 24.7868 90.2209 24.588 91.0611 24.588C92.13 24.588 92.9975 24.9285 93.6637 25.6096C94.3349 26.2858 94.6705 27.2453 94.6705 28.4882V36.1917H91.5011V29.1146C91.5011 28.4782 91.332 28.001 90.994 27.6828C90.6559 27.3646 90.2333 27.2055 89.7262 27.2055C89.1495 27.2055 88.6996 27.3894 88.3764 27.7573C88.0533 28.1203 87.8917 28.6 87.8917 29.1966V36.1917H84.8118V29.0475C84.8118 28.4857 84.6502 28.0382 84.3271 27.7051C84.0089 27.372 83.5888 27.2055 83.0668 27.2055C82.7138 27.2055 82.3956 27.295 82.1122 27.474C81.8338 27.648 81.6126 27.8941 81.4485 28.2122C81.2844 28.5255 81.2024 28.8934 81.2024 29.3159V36.1917H78.0256Z" fill="white"/>
<g clip-path="url(#clip0_156_1036)">
<path d="M123.76 31.9172H105.951C105.661 31.9172 105.382 31.8009 105.176 31.5939C104.971 31.3868 104.855 31.1061 104.855 30.8133C104.855 30.5206 104.971 30.2398 105.176 30.0328C105.382 29.8258 105.661 29.7095 105.951 29.7095H123.76C124.05 29.7095 124.329 29.8258 124.534 30.0328C124.74 30.2398 124.855 30.5206 124.855 30.8133C124.855 31.1061 124.74 31.3868 124.534 31.5939C124.329 31.8009 124.05 31.9172 123.76 31.9172Z" fill="white"/>
<path d="M123.76 26.6739H105.951C105.661 26.6739 105.382 26.5576 105.176 26.3506C104.971 26.1436 104.855 25.8628 104.855 25.57C104.855 25.2773 104.971 24.9965 105.176 24.7895C105.382 24.5825 105.661 24.4662 105.951 24.4662H123.76C124.05 24.4662 124.329 24.5825 124.534 24.7895C124.74 24.9965 124.855 25.2773 124.855 25.57C124.855 25.8628 124.74 26.1436 124.534 26.3506C124.329 26.5576 124.05 26.6739 123.76 26.6739Z" fill="white"/>
</g>
<defs>
<clipPath id="clip0_156_1036">
<rect width="20" height="7.45098" fill="white" transform="translate(104.855 24.4662)"/>
</clipPath>
</defs>
</svg>
