<svg width="30" height="31" viewBox="0 0 30 31" fill="none" xmlns="http://www.w3.org/2000/svg">
<path d="M25.2257 3.48291H4.77114H4.49841C3.39384 3.48291 2.49841 4.37864 2.49841 5.48321C2.49841 5.663 2.49841 5.79037 2.49841 5.82288V26.2774V26.4829C2.49841 27.5875 3.39414 28.4829 4.49871 28.4829C4.64219 28.4829 4.74243 28.4829 4.77113 28.4829H25.2257C25.2544 28.4829 25.3546 28.4829 25.4981 28.4829C26.6027 28.4829 27.4984 27.587 27.4984 26.4824C27.4984 26.3756 27.4984 26.3017 27.4984 26.2774V5.82285C27.4984 5.79035 27.4984 5.66299 27.4984 5.48321C27.4984 4.37864 26.6027 3.48291 25.4981 3.48291C25.3546 3.48291 25.2544 3.48291 25.2257 3.48291ZM17.2711 26.2774H4.77114V17.1865H17.2711V26.2774ZM17.2711 14.9138H4.77114V5.82288L17.2711 5.82285V14.9138ZM25.2257 26.2774H19.5439V5.82288H25.2257V26.2774Z" fill="#CDCDCD"/>
</svg>
