<svg width="137" height="57" viewBox="0 0 137 57" fill="none" xmlns="http://www.w3.org/2000/svg">
<rect x="0.855469" y="0.19165" width="136" height="56" rx="10" fill="#FF3D00"/>
<path d="M30.1165 20.9189H33.3455V30.8372C33.3455 31.9509 33.0795 32.9253 32.5476 33.7605C32.0206 34.5958 31.2823 35.247 30.3327 35.7144C29.3832 36.1767 28.277 36.4079 27.0142 36.4079C25.7464 36.4079 24.6378 36.1767 23.6882 35.7144C22.7386 35.247 22.0004 34.5958 21.4734 33.7605C20.9464 32.9253 20.6829 31.9509 20.6829 30.8372V20.9189H23.9119V30.5613C23.9119 31.143 24.0387 31.66 24.2923 32.1125C24.5508 32.5649 24.9137 32.9203 25.381 33.1789C25.8484 33.4374 26.3928 33.5667 27.0142 33.5667C27.6406 33.5667 28.185 33.4374 28.6474 33.1789C29.1147 32.9203 29.4751 32.5649 29.7287 32.1125C29.9872 31.66 30.1165 31.143 30.1165 30.5613V20.9189ZM35.9426 36.1917V24.7371H39.0225V26.7357H39.1418C39.3506 26.0247 39.7011 25.4878 40.1933 25.1249C40.6855 24.757 41.2522 24.573 41.8936 24.573C42.0526 24.573 42.2242 24.583 42.4081 24.6029C42.5921 24.6228 42.7536 24.6501 42.8928 24.6849V27.5038C42.7437 27.4591 42.5374 27.4193 42.2739 27.3845C42.0104 27.3497 41.7693 27.3323 41.5505 27.3323C41.0832 27.3323 40.6656 27.4342 40.2977 27.638C39.9347 27.8369 39.6464 28.1153 39.4326 28.4733C39.2238 28.8312 39.1194 29.2439 39.1194 29.7112V36.1917H35.9426ZM49.1626 40.7257C48.1335 40.7257 47.2511 40.5841 46.5153 40.3007C45.7844 40.0223 45.2028 39.6419 44.7702 39.1597C44.3377 38.6774 44.0568 38.1355 43.9276 37.534L46.8658 37.1387C46.9553 37.3674 47.0969 37.5812 47.2908 37.7801C47.4847 37.9789 47.7408 38.138 48.0589 38.2573C48.3821 38.3816 48.7749 38.4438 49.2372 38.4438C49.9283 38.4438 50.4975 38.2747 50.945 37.9367C51.3974 37.6036 51.6236 37.0443 51.6236 36.2588V34.1632H51.4893C51.3501 34.4814 51.1413 34.7822 50.8629 35.0656C50.5845 35.349 50.2266 35.5801 49.7891 35.7591C49.3516 35.9381 48.8295 36.0276 48.223 36.0276C47.3629 36.0276 46.5799 35.8287 45.8739 35.431C45.1729 35.0283 44.6136 34.4143 44.196 33.589C43.7834 32.7588 43.5771 31.7098 43.5771 30.442C43.5771 29.1444 43.7884 28.0606 44.2109 27.1906C44.6335 26.3206 45.1953 25.6693 45.8963 25.2367C46.6023 24.8042 47.3754 24.588 48.2156 24.588C48.8569 24.588 49.3938 24.6973 49.8263 24.9161C50.2589 25.1299 50.6069 25.3983 50.8704 25.7215C51.1388 26.0397 51.3452 26.3529 51.4893 26.6611H51.6087V24.7371H54.7631V36.3035C54.7631 37.2779 54.5245 38.0933 54.0472 38.7495C53.57 39.4058 52.9087 39.898 52.0636 40.2261C51.2234 40.5592 50.2564 40.7257 49.1626 40.7257ZM49.2298 33.6412C49.7418 33.6412 50.1744 33.5144 50.5273 33.2609C50.8853 33.0024 51.1587 32.6345 51.3477 32.1572C51.5415 31.675 51.6385 31.0983 51.6385 30.4271C51.6385 29.7559 51.544 29.1742 51.3551 28.6821C51.1662 28.1849 50.8928 27.7996 50.5348 27.5262C50.1768 27.2527 49.7418 27.116 49.2298 27.116C48.7077 27.116 48.2678 27.2577 47.9098 27.5411C47.5518 27.8195 47.2809 28.2073 47.0969 28.7044C46.913 29.2016 46.821 29.7758 46.821 30.4271C46.821 31.0883 46.913 31.66 47.0969 32.1423C47.2859 32.6196 47.5568 32.9899 47.9098 33.2534C48.2678 33.512 48.7077 33.6412 49.2298 33.6412ZM62.5114 36.4154C61.3331 36.4154 60.3189 36.1767 59.4688 35.6995C58.6236 35.2172 57.9723 34.5361 57.5149 33.6561C57.0575 32.7712 56.8288 31.7247 56.8288 30.5166C56.8288 29.3383 57.0575 28.3042 57.5149 27.4143C57.9723 26.5244 58.6161 25.8309 59.4464 25.3337C60.2816 24.8365 61.261 24.588 62.3846 24.588C63.1403 24.588 63.8438 24.7098 64.495 24.9534C65.1513 25.192 65.723 25.5524 66.2102 26.0347C66.7024 26.5169 67.0852 27.1235 67.3587 27.8543C67.6321 28.5801 67.7688 29.4303 67.7688 30.4047V31.2772H58.0966V29.3085H64.7784C64.7784 28.8511 64.679 28.4459 64.4801 28.0929C64.2813 27.7399 64.0053 27.464 63.6523 27.2652C63.3043 27.0613 62.8991 26.9594 62.4368 26.9594C61.9545 26.9594 61.527 27.0713 61.1541 27.295C60.7862 27.5137 60.4979 27.8095 60.2891 28.1824C60.0803 28.5503 59.9734 28.9605 59.9684 29.4129V31.2847C59.9684 31.8515 60.0728 32.3412 60.2816 32.7538C60.4954 33.1664 60.7962 33.4846 61.1839 33.7083C61.5717 33.9321 62.0316 34.0439 62.5636 34.0439C62.9165 34.0439 63.2397 33.9942 63.533 33.8948C63.8263 33.7953 64.0774 33.6462 64.2862 33.4473C64.495 33.2485 64.6541 33.0049 64.7635 32.7165L67.7017 32.9104C67.5526 33.6164 67.2468 34.2328 66.7844 34.7598C66.3271 35.2818 65.7354 35.6895 65.0096 35.9828C64.2887 36.2712 63.456 36.4154 62.5114 36.4154ZM73.0188 29.5695V36.1917H69.842V24.7371H72.8697V26.7581H73.0039C73.2575 26.0919 73.6825 25.5649 74.2791 25.1771C74.8757 24.7843 75.5991 24.588 76.4492 24.588C77.2447 24.588 77.9382 24.762 78.5298 25.11C79.1214 25.458 79.5813 25.9551 79.9094 26.6015C80.2376 27.2428 80.4016 28.0084 80.4016 28.8983V36.1917H77.2248V29.4651C77.2298 28.7641 77.0508 28.2172 76.6879 27.8245C76.3249 27.4267 75.8253 27.2279 75.1889 27.2279C74.7614 27.2279 74.3835 27.3198 74.0554 27.5038C73.7322 27.6877 73.4787 27.9562 73.2947 28.3092C73.1158 28.6572 73.0238 29.0773 73.0188 29.5695ZM88.9981 24.7371V27.1235H82.1001V24.7371H88.9981ZM83.6661 21.9928H86.843V32.6718C86.843 32.9651 86.8877 33.1938 86.9772 33.3578C87.0667 33.5169 87.191 33.6288 87.3501 33.6934C87.5141 33.7581 87.703 33.7904 87.9168 33.7904C88.066 33.7904 88.2151 33.7779 88.3643 33.7531C88.5134 33.7233 88.6278 33.7009 88.7073 33.686L89.2069 36.05C89.0479 36.0997 88.8241 36.1568 88.5358 36.2215C88.2474 36.2911 87.8969 36.3333 87.4843 36.3483C86.7187 36.3781 86.0475 36.2762 85.4708 36.0425C84.8991 35.8088 84.4541 35.4459 84.1359 34.9537C83.8177 34.4615 83.6611 33.8401 83.6661 33.0894V21.9928Z" fill="white"/>
<g clip-path="url(#clip0_156_1007)">
<path d="M117.26 35.4464C117.025 35.4468 116.797 35.3719 116.608 35.2328L108.356 29.1497L100.104 35.2328C99.9877 35.3184 99.8561 35.3803 99.7163 35.4151C99.5765 35.4498 99.4312 35.4567 99.2888 35.4354C99.1463 35.414 99.0094 35.3648 98.886 35.2906C98.7626 35.2164 98.6549 35.1186 98.5693 35.0029C98.4837 34.8871 98.4217 34.7556 98.3869 34.6159C98.3522 34.4762 98.3453 34.331 98.3666 34.1887C98.4098 33.9012 98.5655 33.6425 98.7995 33.4697L107.704 26.8993C107.892 26.7597 108.121 26.6843 108.356 26.6843C108.59 26.6843 108.819 26.7597 109.008 26.8993L117.912 33.4697C118.098 33.6067 118.236 33.7988 118.306 34.0186C118.376 34.2385 118.375 34.4749 118.302 34.6941C118.23 34.9133 118.09 35.1041 117.903 35.2391C117.716 35.3742 117.491 35.4468 117.26 35.4464Z" fill="white"/>
<path d="M117.26 29.6973C117.025 29.6977 116.797 29.6229 116.608 29.4838L108.356 23.4006L100.104 29.4838C99.8696 29.6566 99.5765 29.7295 99.2888 29.6863C99.0011 29.6432 98.7423 29.4876 98.5693 29.2538C98.3964 29.02 98.3235 28.7272 98.3666 28.4396C98.4098 28.1521 98.5655 27.8935 98.7995 27.7207L107.704 21.1502C107.892 21.0106 108.121 20.9353 108.356 20.9353C108.59 20.9353 108.819 21.0106 109.008 21.1502L117.912 27.7207C118.098 27.8576 118.236 28.0497 118.306 28.2696C118.376 28.4895 118.375 28.7259 118.302 28.9451C118.23 29.1643 118.09 29.355 117.903 29.4901C117.716 29.6252 117.491 29.6977 117.26 29.6973Z" fill="white"/>
</g>
<defs>
<clipPath id="clip0_156_1007">
<rect width="20" height="14.5098" fill="white" transform="translate(98.3555 20.9368)"/>
</clipPath>
</defs>
</svg>
