<svg width="145" height="65" viewBox="0 0 145 65" fill="none" xmlns="http://www.w3.org/2000/svg">
<g filter="url(#filter0_d_156_919)">
<rect x="4.85547" y="4.19165" width="136" height="56" rx="10" fill="white"/>
<path d="M37.6623 24.6462H39.4237V34.2769C39.4237 35.2712 39.1893 36.159 38.7205 36.9402C38.2565 37.7167 37.6007 38.3299 36.7532 38.7797C35.9057 39.2248 34.9113 39.4473 33.7702 39.4473C32.6291 39.4473 31.6348 39.2248 30.7873 38.7797C29.9397 38.3299 29.2816 37.7167 28.8129 36.9402C28.3488 36.159 28.1168 35.2712 28.1168 34.2769V24.6462H29.8782V34.1348C29.8782 34.8451 30.0344 35.4772 30.3469 36.0311C30.6594 36.5804 31.1045 37.0136 31.6822 37.3309C32.2646 37.6434 32.9606 37.7996 33.7702 37.7996C34.5799 37.7996 35.2759 37.6434 35.8583 37.3309C36.4407 37.0136 36.8858 36.5804 37.1935 36.0311C37.506 35.4772 37.6623 34.8451 37.6623 34.1348V24.6462ZM42.7138 39.1917V28.2826H44.3331V29.9303H44.4467C44.6456 29.3905 45.0054 28.9525 45.5263 28.6164C46.0471 28.2802 46.6342 28.1121 47.2876 28.1121C47.4107 28.1121 47.5646 28.1145 47.7493 28.1192C47.9339 28.1239 48.0736 28.131 48.1683 28.1405V29.8451C48.1115 29.8309 47.9813 29.8095 47.7777 29.7811C47.5788 29.748 47.3681 29.7314 47.1456 29.7314C46.6153 29.7314 46.1418 29.8427 45.7251 30.0652C45.3132 30.283 44.9865 30.5861 44.745 30.9743C44.5083 31.3578 44.3899 31.7958 44.3899 32.2882V39.1917H42.7138ZM54.2266 43.5098C53.4169 43.5098 52.7209 43.4057 52.1385 43.1973C51.5561 42.9937 51.0708 42.7238 50.6825 42.3877C50.299 42.0562 49.9936 41.7011 49.7663 41.3223L51.1016 40.3848C51.2531 40.5837 51.4448 40.811 51.6768 41.0667C51.9089 41.3271 52.2261 41.552 52.6286 41.7414C53.0357 41.9355 53.5684 42.0326 54.2266 42.0326C55.1072 42.0326 55.834 41.8195 56.407 41.3934C56.9799 40.9672 57.2663 40.2996 57.2663 39.3905V37.1746H57.1243C57.0012 37.3735 56.826 37.6197 56.5987 37.9132C56.3762 38.2021 56.0542 38.4601 55.6328 38.6874C55.2161 38.9099 54.6527 39.0212 53.9425 39.0212C53.0618 39.0212 52.2711 38.8129 51.5703 38.3962C50.8743 37.9795 50.3227 37.3735 49.9155 36.578C49.513 35.7826 49.3118 34.8167 49.3118 33.6803C49.3118 32.5629 49.5083 31.5899 49.9013 30.7613C50.2943 29.9279 50.8411 29.284 51.5419 28.8294C52.2427 28.3702 53.0523 28.1405 53.9709 28.1405C54.6811 28.1405 55.2446 28.2589 55.6612 28.4956C56.0826 28.7276 56.4046 28.9928 56.6271 29.2911C56.8544 29.5846 57.0296 29.8261 57.1527 30.0155H57.3232V28.2826H58.9425V39.5042C58.9425 40.4417 58.7294 41.204 58.3033 41.7911C57.8819 42.3829 57.3137 42.8162 56.5987 43.0908C55.8885 43.3702 55.0978 43.5098 54.2266 43.5098ZM54.1697 37.5155C54.8421 37.5155 55.4103 37.3616 55.8743 37.0539C56.3383 36.7461 56.6911 36.3034 56.9325 35.7257C57.174 35.1481 57.2947 34.4568 57.2947 33.6519C57.2947 32.8659 57.1764 32.1722 56.9396 31.5709C56.7029 30.9696 56.3525 30.4985 55.8885 30.1576C55.4245 29.8166 54.8516 29.6462 54.1697 29.6462C53.4595 29.6462 52.8677 29.8261 52.3942 30.186C51.9254 30.5458 51.5727 31.0288 51.3359 31.6348C51.1039 32.2409 50.9879 32.9132 50.9879 33.6519C50.9879 34.4095 51.1063 35.0794 51.343 35.6618C51.5845 36.2395 51.9396 36.694 52.4084 37.0255C52.8819 37.3522 53.469 37.5155 54.1697 37.5155ZM66.5845 39.4189C65.5334 39.4189 64.6267 39.1869 63.8643 38.7229C63.1068 38.2542 62.522 37.6007 62.1101 36.7627C61.7029 35.9199 61.4993 34.9398 61.4993 33.8223C61.4993 32.7049 61.7029 31.7201 62.1101 30.8678C62.522 30.0108 63.0949 29.3432 63.8288 28.8649C64.5675 28.382 65.4292 28.1405 66.4141 28.1405C66.9822 28.1405 67.5433 28.2352 68.0973 28.4246C68.6513 28.614 69.1555 28.9218 69.6101 29.3479C70.0646 29.7693 70.4268 30.328 70.6967 31.024C70.9666 31.7201 71.1016 32.5771 71.1016 33.5951V34.3053H62.6925V32.8564H69.397C69.397 32.2409 69.2739 31.6916 69.0277 31.2087C68.7862 30.7257 68.4406 30.3446 67.9908 30.0652C67.5457 29.7859 67.0201 29.6462 66.4141 29.6462C65.7464 29.6462 65.1688 29.8119 64.6811 30.1434C64.1982 30.4701 63.8265 30.8962 63.5661 31.4218C63.3056 31.9473 63.1754 32.5108 63.1754 33.1121V34.078C63.1754 34.9019 63.3175 35.6003 63.6016 36.1732C63.8904 36.7414 64.2905 37.1746 64.8018 37.4729C65.3132 37.7665 65.9074 37.9132 66.5845 37.9132C67.0249 37.9132 67.4226 37.8517 67.7777 37.7286C68.1375 37.6007 68.4477 37.4113 68.7081 37.1604C68.9685 36.9047 69.1697 36.5875 69.3118 36.2087L70.9311 36.6632C70.7607 37.2125 70.4742 37.6954 70.0717 38.1121C69.6693 38.524 69.1721 38.846 68.5803 39.078C67.9884 39.3053 67.3232 39.4189 66.5845 39.4189ZM75.3274 32.6292V39.1917H73.6513V28.2826H75.2706V29.9871H75.4126C75.6683 29.4331 76.0566 28.9881 76.5774 28.6519C77.0982 28.311 77.7706 28.1405 78.5945 28.1405C79.3331 28.1405 79.9794 28.292 80.5334 28.5951C81.0874 28.8934 81.5182 29.3479 81.826 29.9587C82.1338 30.5648 82.2876 31.3318 82.2876 32.2598V39.1917H80.6115V32.3735C80.6115 31.5165 80.389 30.8488 79.9439 30.3706C79.4988 29.8877 78.888 29.6462 78.1115 29.6462C77.5765 29.6462 77.0982 29.7622 76.6768 29.9942C76.2602 30.2262 75.9311 30.5648 75.6896 31.0098C75.4482 31.4549 75.3274 31.9947 75.3274 32.6292ZM90.0948 28.2826V29.703H84.4414V28.2826H90.0948ZM86.0891 25.6689H87.7653V36.0667C87.7653 36.5401 87.8339 36.8952 87.9712 37.132C88.1133 37.364 88.2932 37.5202 88.511 37.6007C88.7335 37.6765 88.9679 37.7144 89.2141 37.7144C89.3988 37.7144 89.5503 37.7049 89.6687 37.686C89.7871 37.6623 89.8817 37.6434 89.9528 37.6292L90.2937 39.1348C90.18 39.1774 90.0214 39.2201 89.8178 39.2627C89.6142 39.31 89.3562 39.3337 89.0437 39.3337C88.5702 39.3337 88.1062 39.2319 87.6516 39.0283C87.2018 38.8247 86.8278 38.5146 86.5295 38.0979C86.2359 37.6812 86.0891 37.1557 86.0891 36.5212V25.6689Z" fill="black"/>
<g clip-path="url(#clip0_156_919)">
<path d="M118.26 39.4464C118.025 39.4468 117.797 39.3719 117.608 39.2328L109.356 33.1497L101.104 39.2328C100.988 39.3184 100.856 39.3803 100.716 39.4151C100.577 39.4498 100.431 39.4567 100.289 39.4354C100.146 39.414 100.009 39.3648 99.886 39.2906C99.7626 39.2164 99.6549 39.1186 99.5693 39.0029C99.4837 38.8871 99.4217 38.7556 99.3869 38.6159C99.3522 38.4762 99.3453 38.331 99.3666 38.1887C99.4098 37.9012 99.5655 37.6425 99.7995 37.4697L108.704 30.8993C108.892 30.7597 109.121 30.6843 109.356 30.6843C109.59 30.6843 109.819 30.7597 110.008 30.8993L118.912 37.4697C119.098 37.6067 119.236 37.7988 119.306 38.0186C119.376 38.2385 119.375 38.4749 119.302 38.6941C119.23 38.9133 119.09 39.1041 118.903 39.2391C118.716 39.3742 118.491 39.4468 118.26 39.4464Z" fill="#FF3D00"/>
<path d="M118.26 33.6973C118.025 33.6977 117.797 33.6229 117.608 33.4838L109.356 27.4006L101.104 33.4838C100.87 33.6566 100.577 33.7295 100.289 33.6863C100.001 33.6432 99.7423 33.4876 99.5693 33.2538C99.3964 33.02 99.3235 32.7272 99.3666 32.4396C99.4098 32.1521 99.5655 31.8935 99.7995 31.7207L108.704 25.1502C108.892 25.0106 109.121 24.9353 109.356 24.9353C109.59 24.9353 109.819 25.0106 110.008 25.1502L118.912 31.7207C119.098 31.8576 119.236 32.0497 119.306 32.2696C119.376 32.4895 119.375 32.7259 119.302 32.9451C119.23 33.1643 119.09 33.355 118.903 33.4901C118.716 33.6252 118.491 33.6977 118.26 33.6973Z" fill="#FF3D00"/>
</g>
</g>
<defs>
<filter id="filter0_d_156_919" x="0.855469" y="0.19165" width="144" height="64" filterUnits="userSpaceOnUse" color-interpolation-filters="sRGB">
<feFlood flood-opacity="0" result="BackgroundImageFix"/>
<feColorMatrix in="SourceAlpha" type="matrix" values="0 0 0 0 0 0 0 0 0 0 0 0 0 0 0 0 0 0 127 0" result="hardAlpha"/>
<feOffset/>
<feGaussianBlur stdDeviation="2"/>
<feColorMatrix type="matrix" values="0 0 0 0 0 0 0 0 0 0 0 0 0 0 0 0 0 0 0.1 0"/>
<feBlend mode="normal" in2="BackgroundImageFix" result="effect1_dropShadow_156_919"/>
<feBlend mode="normal" in="SourceGraphic" in2="effect1_dropShadow_156_919" result="shape"/>
</filter>
<clipPath id="clip0_156_919">
<rect width="20" height="14.5098" fill="white" transform="translate(99.3555 24.9368)"/>
</clipPath>
</defs>
</svg>
