<svg width="21" height="10" viewBox="0 0 21 10" fill="none" xmlns="http://www.w3.org/2000/svg">
<path d="M19.6528 9.50568C19.4182 9.50609 19.1896 9.43124 19.0007 9.29214L10.7487 3.20898L2.49663 9.29214C2.26266 9.46495 1.96957 9.5378 1.68184 9.49468C1.39412 9.45155 1.13532 9.29597 0.962385 9.06218C0.789449 8.82838 0.716541 8.53551 0.7597 8.24799C0.802859 7.96048 0.95855 7.70187 1.19252 7.52906L10.0966 0.958588C10.2853 0.818997 10.5139 0.743652 10.7487 0.743652C10.9835 0.743652 11.212 0.818997 11.4007 0.958588L20.3048 7.52906C20.4908 7.66598 20.6286 7.85809 20.6988 8.07797C20.769 8.29785 20.7678 8.53426 20.6955 8.75344C20.6232 8.97262 20.4834 9.16338 20.2962 9.29847C20.1089 9.43356 19.8837 9.50608 19.6528 9.50568Z" fill="#FF3D00"/>
</svg>
