<svg width="21" height="10" viewBox="0 0 21 10" fill="none" xmlns="http://www.w3.org/2000/svg">
<path d="M10.2485 9.25443C10.0139 9.25483 9.7854 9.17999 9.59655 9.04091L0.693448 2.47117C0.459502 2.29839 0.30383 2.03981 0.260675 1.75233C0.217521 1.46485 0.290421 1.17201 0.463337 0.938236C0.636253 0.704464 0.895021 0.548906 1.18272 0.505783C1.47041 0.462661 1.76347 0.535507 1.99741 0.708295L10.2485 6.79078L18.4997 0.708295C18.7336 0.535507 19.0267 0.462661 19.3144 0.505783C19.602 0.548906 19.8608 0.704464 20.0337 0.938236C20.2066 1.17201 20.2795 1.46485 20.2364 1.75233C20.1932 2.03981 20.0376 2.29839 19.8036 2.47117L10.9005 9.04091C10.7117 9.17999 10.4831 9.25483 10.2485 9.25443Z" fill="#7AE229"/>
</svg>
